solid Exported from Blender-2.80 (sub 75)
facet normal 0.000000 -0.000000 -1.000000
outer loop
vertex -2.644242 -0.577108 -1.067724
vertex -3.353362 -0.577108 -1.067724
vertex -3.353362 0.756715 -1.067724
endloop
endfacet
facet normal -0.000000 -0.000000 -1.000000
outer loop
vertex -2.644242 -0.577108 -1.067724
vertex -3.353362 0.756715 -1.067724
vertex -2.644242 1.019651 -1.067724
endloop
endfacet
facet normal -0.347662 0.937620 -0.000000
outer loop
vertex -2.644242 1.019651 -1.067724
vertex -3.353362 0.756715 -1.067724
vertex -3.353362 0.756715 -0.093009
endloop
endfacet
facet normal -0.347662 0.937620 -0.000000
outer loop
vertex -2.644242 1.019651 -1.067724
vertex -3.353362 0.756715 -0.093009
vertex -2.644242 1.019652 -0.093009
endloop
endfacet
facet normal -0.000000 0.000000 1.000000
outer loop
vertex -2.644242 1.019652 -0.093009
vertex -3.353362 0.756715 -0.093009
vertex -3.353362 -0.577108 -0.093008
endloop
endfacet
facet normal 0.000000 0.000000 1.000000
outer loop
vertex -2.644242 1.019652 -0.093009
vertex -3.353362 -0.577108 -0.093008
vertex -2.644242 -0.577108 -0.093008
endloop
endfacet
facet normal 0.000000 -1.000000 0.000000
outer loop
vertex -2.644242 -0.577108 -0.093008
vertex -3.353362 -0.577108 -0.093008
vertex -3.353362 -0.577108 -1.067724
endloop
endfacet
facet normal 0.000000 -1.000000 0.000000
outer loop
vertex -2.644242 -0.577108 -0.093008
vertex -3.353362 -0.577108 -1.067724
vertex -2.644242 -0.577108 -1.067724
endloop
endfacet
facet normal -1.000000 0.000000 0.000000
outer loop
vertex -3.353362 -0.577108 -1.067724
vertex -3.353362 -0.577108 -0.093008
vertex -3.353362 0.756715 -0.093009
endloop
endfacet
facet normal -1.000000 -0.000000 0.000000
outer loop
vertex -3.353362 -0.577108 -1.067724
vertex -3.353362 0.756715 -0.093009
vertex -3.353362 0.756715 -1.067724
endloop
endfacet
facet normal 1.000000 -0.000000 0.000000
outer loop
vertex -2.644242 -0.577108 -0.093008
vertex -2.644242 -0.577108 -1.067724
vertex -2.644242 1.019651 -1.067724
endloop
endfacet
facet normal 1.000000 0.000000 0.000000
outer loop
vertex -2.644242 -0.577108 -0.093008
vertex -2.644242 1.019651 -1.067724
vertex -2.644242 1.019652 -0.093009
endloop
endfacet
facet normal 0.000000 -0.000000 -1.000000
outer loop
vertex 7.860611 -0.573473 -0.771621
vertex 4.472795 -0.573473 -0.771621
vertex 4.472795 1.173583 -0.771621
endloop
endfacet
facet normal 0.000000 -0.000000 -1.000000
outer loop
vertex 7.860611 -0.573473 -0.771621
vertex 4.472795 1.173583 -0.771621
vertex 7.860611 1.173583 -0.771621
endloop
endfacet
facet normal 0.000000 0.000000 1.000000
outer loop
vertex 7.860611 1.173584 2.616194
vertex 4.472795 1.173584 2.616194
vertex 4.472795 -0.573472 2.616194
endloop
endfacet
facet normal 0.000000 0.000000 1.000000
outer loop
vertex 7.860611 1.173584 2.616194
vertex 4.472795 -0.573472 2.616194
vertex 7.860611 -0.573472 2.616194
endloop
endfacet
facet normal -1.000000 -0.000000 0.000000
outer loop
vertex 4.472795 -0.573473 -0.771621
vertex 4.472795 -0.573472 2.616194
vertex 4.472795 1.173584 2.616194
endloop
endfacet
facet normal -1.000000 0.000000 0.000000
outer loop
vertex 4.472795 -0.573473 -0.771621
vertex 4.472795 1.173584 2.616194
vertex 4.472795 1.173583 -0.771621
endloop
endfacet
facet normal 1.000000 0.000001 0.000000
outer loop
vertex 7.860611 -0.573472 2.616194
vertex 7.860611 -0.573473 -0.771621
vertex 7.860611 1.173583 -0.771621
endloop
endfacet
facet normal 1.000000 -0.000001 0.000000
outer loop
vertex 7.860611 -0.573472 2.616194
vertex 7.860611 1.173583 -0.771621
vertex 7.860611 1.173584 2.616194
endloop
endfacet
facet normal 1.000000 -0.000000 -0.000000
outer loop
vertex 8.177805 1.147969 2.972132
vertex 8.177803 1.147969 -1.088814
vertex 8.177803 3.242150 -1.088814
endloop
endfacet
facet normal 1.000000 0.000000 -0.000000
outer loop
vertex 8.177805 1.147969 2.972132
vertex 8.177803 3.242150 -1.088814
vertex 8.177805 3.242150 2.972132
endloop
endfacet
facet normal -1.000000 -0.000000 0.000000
outer loop
vertex 4.116858 3.242150 2.972133
vertex 4.116858 3.242150 -1.088814
vertex 4.116858 1.147969 -1.088814
endloop
endfacet
facet normal -1.000000 0.000000 0.000000
outer loop
vertex 4.116858 3.242150 2.972133
vertex 4.116858 1.147969 -1.088814
vertex 4.116858 1.147969 2.972133
endloop
endfacet
facet normal 0.000000 -1.000000 0.000000
outer loop
vertex 4.116858 1.147969 2.972133
vertex 4.116858 1.147969 -1.088814
vertex 8.177803 1.147969 -1.088814
endloop
endfacet
facet normal 0.000000 -1.000000 0.000000
outer loop
vertex 4.116858 1.147969 2.972133
vertex 8.177803 1.147969 -1.088814
vertex 8.177805 1.147969 2.972132
endloop
endfacet
facet normal -0.000000 -0.000000 -1.000000
outer loop
vertex 8.177803 1.147969 -1.088814
vertex 4.116858 1.147969 -1.088814
vertex 4.116858 3.242150 -1.088814
endloop
endfacet
facet normal -0.000000 -0.000000 -1.000000
outer loop
vertex 8.177803 1.147969 -1.088814
vertex 4.116858 3.242150 -1.088814
vertex 8.177803 3.242150 -1.088814
endloop
endfacet
facet normal 0.000000 0.000000 1.000000
outer loop
vertex 4.116858 1.147969 2.972133
vertex 8.177805 1.147969 2.972132
vertex 8.177805 3.242150 2.972132
endloop
endfacet
facet normal 0.000000 0.000000 1.000000
outer loop
vertex 4.116858 1.147969 2.972133
vertex 8.177805 3.242150 2.972132
vertex 4.116858 3.242150 2.972133
endloop
endfacet
facet normal 0.470271 0.882522 -0.000000
outer loop
vertex 8.177805 3.242150 2.972132
vertex 8.177803 3.242150 -1.088814
vertex 6.147331 4.324133 0.941659
endloop
endfacet
facet normal -0.000000 0.882522 -0.470272
outer loop
vertex 8.177803 3.242150 -1.088814
vertex 4.116858 3.242150 -1.088814
vertex 6.147331 4.324133 0.941659
endloop
endfacet
facet normal -0.470272 0.882522 -0.000000
outer loop
vertex 4.116858 3.242150 -1.088814
vertex 4.116858 3.242150 2.972133
vertex 6.147331 4.324133 0.941659
endloop
endfacet
facet normal 0.000000 0.882522 0.470271
outer loop
vertex 4.116858 3.242150 2.972133
vertex 8.177805 3.242150 2.972132
vertex 6.147331 4.324133 0.941659
endloop
endfacet
facet normal 1.000000 0.000000 -0.000000
outer loop
vertex -0.135286 -0.583199 2.989707
vertex -0.135287 -0.583200 -1.071240
vertex -0.135287 1.510981 -1.071240
endloop
endfacet
facet normal 1.000000 0.000000 -0.000000
outer loop
vertex -0.135286 -0.583199 2.989707
vertex -0.135287 1.510981 -1.071240
vertex -0.135286 1.510982 2.989706
endloop
endfacet
facet normal -1.000000 0.000000 0.000000
outer loop
vertex -2.852115 1.510982 2.989707
vertex -2.852116 1.510981 -1.071240
vertex -2.852116 -0.583200 -1.071239
endloop
endfacet
facet normal -1.000000 -0.000000 0.000000
outer loop
vertex -2.852115 1.510982 2.989707
vertex -2.852116 -0.583200 -1.071239
vertex -2.852115 -0.583199 2.989707
endloop
endfacet
facet normal -0.000000 -0.000000 -1.000000
outer loop
vertex -0.135287 -0.583200 -1.071240
vertex -2.852116 -0.583200 -1.071239
vertex -2.852116 1.510981 -1.071240
endloop
endfacet
facet normal 0.000000 -0.000000 -1.000000
outer loop
vertex -0.135287 -0.583200 -1.071240
vertex -2.852116 1.510981 -1.071240
vertex -0.135287 1.510981 -1.071240
endloop
endfacet
facet normal 0.000000 0.000000 1.000000
outer loop
vertex -2.852115 -0.583199 2.989707
vertex -0.135286 -0.583199 2.989707
vertex -0.135286 1.510982 2.989706
endloop
endfacet
facet normal 0.000000 0.000000 1.000000
outer loop
vertex -2.852115 -0.583199 2.989707
vertex -0.135286 1.510982 2.989706
vertex -2.852115 1.510982 2.989707
endloop
endfacet
facet normal -0.000000 0.026872 -0.999639
outer loop
vertex -0.135287 1.510981 -1.071240
vertex -2.852116 1.510981 -1.071240
vertex -1.493701 2.592964 -1.042154
endloop
endfacet
facet normal 0.000000 -0.006619 0.999978
outer loop
vertex -2.852115 1.510982 2.989707
vertex -0.135286 1.510982 2.989706
vertex -1.493701 2.592965 2.996868
endloop
endfacet
facet normal 0.000000 0.011072 -0.999939
outer loop
vertex -1.253593 -0.615717 2.965333
vertex -2.036150 -0.615717 2.965333
vertex -2.036150 2.158462 2.996051
endloop
endfacet
facet normal -0.000000 0.011072 -0.999939
outer loop
vertex -1.253593 -0.615717 2.965333
vertex -2.036150 2.158462 2.996051
vertex -1.253593 2.158462 2.996051
endloop
endfacet
facet normal 0.000000 1.000000 0.000000
outer loop
vertex -1.414317 2.685181 3.091684
vertex -1.875425 2.685181 3.091684
vertex -1.875425 2.685181 3.366050
endloop
endfacet
facet normal 0.000000 1.000000 0.000000
outer loop
vertex -1.414317 2.685181 3.091684
vertex -1.875425 2.685181 3.366050
vertex -1.414317 2.685181 3.366050
endloop
endfacet
facet normal 0.000001 0.000000 1.000000
outer loop
vertex -1.253593 2.158463 3.461684
vertex -2.036150 2.158462 3.461684
vertex -2.036150 -0.615717 3.461685
endloop
endfacet
facet normal 0.000000 0.000000 1.000000
outer loop
vertex -1.253593 2.158463 3.461684
vertex -2.036150 -0.615717 3.461685
vertex -1.253593 -0.615717 3.461685
endloop
endfacet
facet normal -1.000000 -0.000000 0.000000
outer loop
vertex -2.036150 -0.615717 2.965333
vertex -2.036150 -0.615717 3.461685
vertex -2.036150 2.158462 3.461684
endloop
endfacet
facet normal -1.000000 0.000000 0.000000
outer loop
vertex -2.036150 -0.615717 2.965333
vertex -2.036150 2.158462 3.461684
vertex -2.036150 2.158462 2.996051
endloop
endfacet
facet normal 1.000000 0.000000 0.000000
outer loop
vertex -1.253593 -0.615717 3.461685
vertex -1.253593 -0.615717 2.965333
vertex -1.253593 2.158462 2.996051
endloop
endfacet
facet normal 1.000000 0.000000 0.000000
outer loop
vertex -1.253593 -0.615717 3.461685
vertex -1.253593 2.158462 2.996051
vertex -1.253593 2.158463 3.461684
endloop
endfacet
facet normal 0.000000 0.178644 -0.983914
outer loop
vertex -1.253593 2.158462 2.996051
vertex -2.036150 2.158462 2.996051
vertex -1.875425 2.685181 3.091684
endloop
endfacet
facet normal 0.000000 0.178644 -0.983914
outer loop
vertex -1.253593 2.158462 2.996051
vertex -1.875425 2.685181 3.091684
vertex -1.414317 2.685181 3.091684
endloop
endfacet
facet normal -0.956462 0.291858 0.000000
outer loop
vertex -2.036150 2.158462 2.996051
vertex -2.036150 2.158462 3.461684
vertex -1.875425 2.685181 3.366050
endloop
endfacet
facet normal -0.956462 0.291857 0.000000
outer loop
vertex -2.036150 2.158462 2.996051
vertex -1.875425 2.685181 3.366050
vertex -1.875425 2.685181 3.091684
endloop
endfacet
facet normal 0.000000 0.178645 0.983914
outer loop
vertex -2.036150 2.158462 3.461684
vertex -1.253593 2.158463 3.461684
vertex -1.414317 2.685181 3.366050
endloop
endfacet
facet normal 0.000000 0.178644 0.983914
outer loop
vertex -2.036150 2.158462 3.461684
vertex -1.414317 2.685181 3.366050
vertex -1.875425 2.685181 3.366050
endloop
endfacet
facet normal 0.956462 0.291858 0.000000
outer loop
vertex -1.253593 2.158463 3.461684
vertex -1.253593 2.158462 2.996051
vertex -1.414317 2.685181 3.091684
endloop
endfacet
facet normal 0.956462 0.291858 0.000000
outer loop
vertex -1.253593 2.158463 3.461684
vertex -1.414317 2.685181 3.091684
vertex -1.414317 2.685181 3.366050
endloop
endfacet
facet normal 0.000000 -0.000000 -1.000000
outer loop
vertex 3.553019 0.195913 -0.783511
vertex 1.043341 0.191792 -0.783511
vertex 2.296120 1.477539 -0.783511
endloop
endfacet
facet normal 0.000000 -0.000000 -1.000000
outer loop
vertex 3.553019 0.195913 -0.783511
vertex 3.557140 -0.574710 -0.783511
vertex 1.043341 -0.578831 -0.783511
endloop
endfacet
facet normal 0.000000 -0.000000 -1.000000
outer loop
vertex 3.553019 0.195913 -0.783511
vertex 1.043341 -0.578831 -0.783511
vertex 1.043341 0.191792 -0.783511
endloop
endfacet
facet normal 0.999985 0.005347 -0.000759
outer loop
vertex 3.557140 -0.574710 -0.783511
vertex 3.553019 0.195913 -0.783511
vertex 3.555079 0.193853 1.917906
endloop
endfacet
facet normal 0.999996 0.002673 0.000002
outer loop
vertex 3.557140 -0.574710 -0.783511
vertex 3.555079 0.193853 1.917906
vertex 3.557140 -0.576770 1.917906
endloop
endfacet
facet normal -1.000000 0.000000 0.000000
outer loop
vertex 1.043341 0.191792 -0.783511
vertex 1.043341 -0.578831 -0.783511
vertex 1.043341 -0.576770 1.917906
endloop
endfacet
facet normal -0.999996 0.002674 0.000761
outer loop
vertex 1.043341 0.191792 -0.783511
vertex 1.043341 -0.576770 1.917906
vertex 1.045402 0.193853 1.917906
endloop
endfacet
facet normal 0.000000 -0.002445 0.999997
outer loop
vertex 1.045402 0.193853 1.917906
vertex 3.555079 0.193853 1.917906
vertex 2.304362 1.477539 1.921045
endloop
endfacet
facet normal 0.000000 0.000000 1.000000
outer loop
vertex 1.045402 0.193853 1.917906
vertex 1.043341 -0.576770 1.917906
vertex 3.557140 -0.576770 1.917906
endloop
endfacet
facet normal 0.000000 0.000000 1.000000
outer loop
vertex 1.045402 0.193853 1.917906
vertex 3.557140 -0.576770 1.917906
vertex 3.555079 0.193853 1.917906
endloop
endfacet
facet normal 1.000000 0.000000 0.000000
outer loop
vertex 6.468626 3.296317 2.819198
vertex 6.468626 3.618235 2.235816
vertex 6.468626 4.201617 2.235816
endloop
endfacet
facet normal 1.000000 0.000001 0.000000
outer loop
vertex 6.468626 3.296317 2.819198
vertex 6.468626 4.201617 2.235816
vertex 6.468626 4.201617 2.819197
endloop
endfacet
facet normal -1.000000 0.000000 0.000000
outer loop
vertex 5.885244 4.201617 2.819197
vertex 5.885244 4.201617 2.235816
vertex 5.885244 3.618235 2.235816
endloop
endfacet
facet normal -1.000000 0.000000 0.000000
outer loop
vertex 5.885244 4.201617 2.819197
vertex 5.885244 3.618235 2.235816
vertex 5.885244 3.296317 2.819198
endloop
endfacet
facet normal 0.000000 0.000000 -1.000000
outer loop
vertex 6.468626 3.618235 2.235816
vertex 5.885244 3.618235 2.235816
vertex 5.885244 4.201617 2.235816
endloop
endfacet
facet normal 0.000000 0.000000 -1.000000
outer loop
vertex 6.468626 3.618235 2.235816
vertex 5.885244 4.201617 2.235816
vertex 6.468626 4.201617 2.235816
endloop
endfacet
facet normal 0.000000 0.000000 1.000000
outer loop
vertex 5.885244 3.296317 2.819198
vertex 6.468626 3.296317 2.819198
vertex 6.468626 4.201617 2.819197
endloop
endfacet
facet normal 0.000000 0.000000 1.000000
outer loop
vertex 5.885244 3.296317 2.819198
vertex 6.468626 4.201617 2.819197
vertex 5.885244 4.201617 2.819197
endloop
endfacet
facet normal 0.795678 0.605720 0.000000
outer loop
vertex 6.468626 4.201617 2.819197
vertex 6.468626 4.201617 2.235816
vertex 6.454042 4.220776 2.250401
endloop
endfacet
facet normal 0.795681 0.605716 0.000000
outer loop
vertex 6.468626 4.201617 2.819197
vertex 6.454042 4.220776 2.250401
vertex 6.454042 4.220776 2.804614
endloop
endfacet
facet normal 0.000000 0.605730 -0.795670
outer loop
vertex 6.468626 4.201617 2.235816
vertex 5.885244 4.201617 2.235816
vertex 5.899828 4.220776 2.250401
endloop
endfacet
facet normal 0.000000 0.605735 -0.795666
outer loop
vertex 6.468626 4.201617 2.235816
vertex 5.899828 4.220776 2.250401
vertex 6.454042 4.220776 2.250401
endloop
endfacet
facet normal -0.795671 0.605729 0.000000
outer loop
vertex 5.885244 4.201617 2.235816
vertex 5.885244 4.201617 2.819197
vertex 5.899828 4.220776 2.804614
endloop
endfacet
facet normal -0.795681 0.605716 0.000000
outer loop
vertex 5.885244 4.201617 2.235816
vertex 5.899828 4.220776 2.804614
vertex 5.899828 4.220776 2.250401
endloop
endfacet
facet normal 0.000000 0.605692 0.795699
outer loop
vertex 5.885244 4.201617 2.819197
vertex 6.468626 4.201617 2.819197
vertex 6.454042 4.220776 2.804614
endloop
endfacet
facet normal 0.000001 0.605692 0.795699
outer loop
vertex 5.885244 4.201617 2.819197
vertex 6.454042 4.220776 2.804614
vertex 5.899828 4.220776 2.804614
endloop
endfacet
facet normal 0.000000 1.000000 0.000000
outer loop
vertex 6.454042 4.220776 2.804614
vertex 6.454042 4.220776 2.250401
vertex 6.338580 4.220776 2.365862
endloop
endfacet
facet normal 0.000000 1.000000 0.000000
outer loop
vertex 6.454042 4.220776 2.804614
vertex 6.338580 4.220776 2.365862
vertex 6.338580 4.220776 2.689153
endloop
endfacet
facet normal 0.000000 1.000000 0.000002
outer loop
vertex 6.454042 4.220776 2.250401
vertex 5.899828 4.220776 2.250401
vertex 6.015290 4.220776 2.365862
endloop
endfacet
facet normal 0.000000 1.000000 0.000000
outer loop
vertex 6.454042 4.220776 2.250401
vertex 6.015290 4.220776 2.365862
vertex 6.338580 4.220776 2.365862
endloop
endfacet
facet normal 0.000000 1.000000 0.000000
outer loop
vertex 5.899828 4.220776 2.250401
vertex 5.899828 4.220776 2.804614
vertex 6.015290 4.220776 2.689153
endloop
endfacet
facet normal 0.000000 1.000000 0.000000
outer loop
vertex 5.899828 4.220776 2.250401
vertex 6.015290 4.220776 2.689153
vertex 6.015290 4.220776 2.365862
endloop
endfacet
facet normal 0.000000 1.000000 -0.000003
outer loop
vertex 5.899828 4.220776 2.804614
vertex 6.454042 4.220776 2.804614
vertex 6.338580 4.220776 2.689153
endloop
endfacet
facet normal 0.000000 1.000000 0.000006
outer loop
vertex 5.899828 4.220776 2.804614
vertex 6.338580 4.220776 2.689153
vertex 6.015290 4.220776 2.689153
endloop
endfacet
facet normal -1.000000 0.000000 0.000000
outer loop
vertex 6.338580 4.220776 2.689153
vertex 6.338580 4.220776 2.365862
vertex 6.338580 3.985558 2.365862
endloop
endfacet
facet normal -1.000000 0.000000 0.000000
outer loop
vertex 6.338580 4.220776 2.689153
vertex 6.338580 3.985558 2.365862
vertex 6.338580 3.985558 2.689153
endloop
endfacet
facet normal 0.000000 0.000000 1.000000
outer loop
vertex 6.338580 4.220776 2.365862
vertex 6.015290 4.220776 2.365862
vertex 6.015290 3.985558 2.365862
endloop
endfacet
facet normal 0.000000 0.000000 1.000000
outer loop
vertex 6.338580 4.220776 2.365862
vertex 6.015290 3.985558 2.365862
vertex 6.338580 3.985558 2.365862
endloop
endfacet
facet normal 1.000000 0.000000 0.000000
outer loop
vertex 6.015290 4.220776 2.365862
vertex 6.015290 4.220776 2.689153
vertex 6.015290 3.985558 2.689153
endloop
endfacet
facet normal 1.000000 0.000000 0.000000
outer loop
vertex 6.015290 4.220776 2.365862
vertex 6.015290 3.985558 2.689153
vertex 6.015290 3.985558 2.365862
endloop
endfacet
facet normal -0.000002 0.000000 -1.000000
outer loop
vertex 6.015290 4.220776 2.689153
vertex 6.338580 4.220776 2.689153
vertex 6.338580 3.985558 2.689153
endloop
endfacet
facet normal 0.000001 0.000000 -1.000000
outer loop
vertex 6.015290 4.220776 2.689153
vertex 6.338580 3.985558 2.689153
vertex 6.015290 3.985558 2.689153
endloop
endfacet
facet normal -0.623921 0.781488 -0.000000
outer loop
vertex -1.489660 2.607207 -1.300235
vertex -3.028210 1.378865 -1.300234
vertex -3.028210 1.378866 3.220183
endloop
endfacet
facet normal -0.623921 0.781487 -0.000000
outer loop
vertex -1.489660 2.607207 -1.300235
vertex -3.028210 1.378866 3.220183
vertex -1.489660 2.607208 3.220182
endloop
endfacet
facet normal 0.629851 0.776716 -0.000000
outer loop
vertex 0.008347 1.392449 -1.300234
vertex -1.489660 2.607207 -1.300235
vertex -1.489660 2.607208 3.220182
endloop
endfacet
facet normal 0.629851 0.776716 -0.000000
outer loop
vertex 0.008347 1.392449 -1.300234
vertex -1.489660 2.607208 3.220182
vertex 0.008347 1.392450 3.220182
endloop
endfacet
facet normal -0.714700 0.699431 -0.000000
outer loop
vertex 2.296120 1.477538 -0.931304
vertex 0.947282 0.099254 -0.931303
vertex 0.947282 0.099254 2.067324
endloop
endfacet
facet normal -0.714700 0.699431 -0.000000
outer loop
vertex 2.296120 1.477538 -0.931304
vertex 0.947282 0.099254 2.067324
vertex 2.296120 1.477539 2.067323
endloop
endfacet
facet normal 0.712583 0.701588 -0.000000
outer loop
vertex 3.649079 0.103375 -0.931303
vertex 2.296120 1.477538 -0.931304
vertex 2.296120 1.477539 2.067323
endloop
endfacet
facet normal 0.712583 0.701588 -0.000000
outer loop
vertex 3.649079 0.103375 -0.931303
vertex 2.296120 1.477539 2.067323
vertex 3.649079 0.103376 2.067323
endloop
endfacet
facet normal 0.000000 -0.000000 -1.000000
outer loop
vertex 2.490395 1.250165 0.318394
vertex 2.081835 1.250165 0.318394
vertex 2.081835 1.765227 0.318394
endloop
endfacet
facet normal 0.000000 -0.000000 -1.000000
outer loop
vertex 2.490395 1.250165 0.318394
vertex 2.081835 1.765227 0.318394
vertex 2.490395 1.765227 0.318394
endloop
endfacet
facet normal 0.000000 1.000000 -0.000001
outer loop
vertex 2.490395 1.765227 0.318394
vertex 2.081835 1.765227 0.318394
vertex 2.081835 1.765227 0.726954
endloop
endfacet
facet normal 0.000000 1.000000 -0.000001
outer loop
vertex 2.490395 1.765227 0.318394
vertex 2.081835 1.765227 0.726954
vertex 2.490395 1.765227 0.726954
endloop
endfacet
facet normal 0.000000 0.000000 1.000000
outer loop
vertex 2.490395 1.765227 0.726954
vertex 2.081835 1.765227 0.726954
vertex 2.081835 1.250166 0.726954
endloop
endfacet
facet normal 0.000000 0.000000 1.000000
outer loop
vertex 2.490395 1.765227 0.726954
vertex 2.081835 1.250166 0.726954
vertex 2.490395 1.250166 0.726954
endloop
endfacet
facet normal -1.000000 -0.000000 0.000000
outer loop
vertex 2.081835 1.250165 0.318394
vertex 2.081835 1.250166 0.726954
vertex 2.081835 1.765227 0.726954
endloop
endfacet
facet normal -1.000000 0.000000 0.000000
outer loop
vertex 2.081835 1.250165 0.318394
vertex 2.081835 1.765227 0.726954
vertex 2.081835 1.765227 0.318394
endloop
endfacet
facet normal 1.000000 -0.000001 0.000000
outer loop
vertex 2.490395 1.250166 0.726954
vertex 2.490395 1.250165 0.318394
vertex 2.490395 1.765227 0.318394
endloop
endfacet
facet normal 1.000000 0.000001 0.000000
outer loop
vertex 2.490395 1.250166 0.726954
vertex 2.490395 1.765227 0.318394
vertex 2.490395 1.765227 0.726954
endloop
endfacet
facet normal -1.000000 0.000000 0.000000
outer loop
vertex -9.586073 -0.577108 11.831174
vertex -9.586073 -0.577108 12.540294
vertex -9.586073 0.756715 12.540295
endloop
endfacet
facet normal -1.000000 0.000000 0.000000
outer loop
vertex -9.586073 -0.577108 11.831174
vertex -9.586073 0.756715 12.540295
vertex -9.586073 1.019651 11.831174
endloop
endfacet
facet normal -0.000000 0.937620 0.347662
outer loop
vertex -9.586073 1.019651 11.831174
vertex -9.586073 0.756715 12.540295
vertex -8.611357 0.756715 12.540295
endloop
endfacet
facet normal 0.000000 0.937620 0.347662
outer loop
vertex -9.586073 1.019651 11.831174
vertex -8.611357 0.756715 12.540295
vertex -8.611357 1.019652 11.831174
endloop
endfacet
facet normal 1.000000 -0.000000 0.000000
outer loop
vertex -8.611357 1.019652 11.831174
vertex -8.611357 0.756715 12.540295
vertex -8.611357 -0.577107 12.540294
endloop
endfacet
facet normal 1.000000 0.000000 0.000000
outer loop
vertex -8.611357 1.019652 11.831174
vertex -8.611357 -0.577107 12.540294
vertex -8.611357 -0.577108 11.831174
endloop
endfacet
facet normal 0.000000 -1.000000 0.000000
outer loop
vertex -8.611357 -0.577108 11.831174
vertex -8.611357 -0.577107 12.540294
vertex -9.586073 -0.577108 12.540294
endloop
endfacet
facet normal 0.000000 -1.000000 0.000000
outer loop
vertex -8.611357 -0.577108 11.831174
vertex -9.586073 -0.577108 12.540294
vertex -9.586073 -0.577108 11.831174
endloop
endfacet
facet normal 0.000000 -0.000001 1.000000
outer loop
vertex -9.586073 -0.577108 12.540294
vertex -8.611357 -0.577107 12.540294
vertex -8.611357 0.756715 12.540295
endloop
endfacet
facet normal 0.000001 -0.000001 1.000000
outer loop
vertex -9.586073 -0.577108 12.540294
vertex -8.611357 0.756715 12.540295
vertex -9.586073 0.756715 12.540295
endloop
endfacet
facet normal 0.000000 0.000000 -1.000000
outer loop
vertex -8.611357 -0.577108 11.831174
vertex -9.586073 -0.577108 11.831174
vertex -9.586073 1.019651 11.831174
endloop
endfacet
facet normal 0.000001 0.000000 -1.000000
outer loop
vertex -8.611357 -0.577108 11.831174
vertex -9.586073 1.019651 11.831174
vertex -8.611357 1.019652 11.831174
endloop
endfacet
facet normal -0.000000 0.000000 -1.000000
outer loop
vertex -5.528643 -0.583199 9.322218
vertex -9.589588 -0.583199 9.322219
vertex -9.589588 1.510981 9.322220
endloop
endfacet
facet normal -0.000001 0.000000 -1.000000
outer loop
vertex -5.528643 -0.583199 9.322218
vertex -9.589588 1.510981 9.322220
vertex -5.528643 1.510982 9.322219
endloop
endfacet
facet normal 0.000000 0.000000 1.000000
outer loop
vertex -5.528643 1.510981 12.039047
vertex -9.589588 1.510981 12.039048
vertex -9.589588 -0.583200 12.039048
endloop
endfacet
facet normal 0.000000 0.000000 1.000000
outer loop
vertex -5.528643 1.510981 12.039047
vertex -9.589588 -0.583200 12.039048
vertex -5.528642 -0.583199 12.039047
endloop
endfacet
facet normal -1.000000 0.000000 0.000000
outer loop
vertex -9.589588 -0.583199 9.322219
vertex -9.589588 -0.583200 12.039048
vertex -9.589588 1.510981 12.039048
endloop
endfacet
facet normal -1.000000 0.000000 0.000000
outer loop
vertex -9.589588 -0.583199 9.322219
vertex -9.589588 1.510981 12.039048
vertex -9.589588 1.510981 9.322220
endloop
endfacet
facet normal 1.000000 0.000000 -0.000000
outer loop
vertex -5.528642 -0.583199 12.039047
vertex -5.528643 -0.583199 9.322218
vertex -5.528643 1.510982 9.322219
endloop
endfacet
facet normal 1.000000 0.000000 0.000000
outer loop
vertex -5.528642 -0.583199 12.039047
vertex -5.528643 1.510982 9.322219
vertex -5.528643 1.510981 12.039047
endloop
endfacet
facet normal -0.999639 0.026871 0.000000
outer loop
vertex -9.589588 1.510981 9.322220
vertex -9.589588 1.510981 12.039048
vertex -9.560503 2.592964 10.680634
endloop
endfacet
facet normal 0.999978 -0.006619 -0.000000
outer loop
vertex -5.528643 1.510981 12.039047
vertex -5.528643 1.510982 9.322219
vertex -5.521481 2.592965 10.680634
endloop
endfacet
facet normal -0.999939 0.011072 0.000000
outer loop
vertex -5.553016 -0.615717 10.440525
vertex -5.553016 -0.615717 11.223082
vertex -5.522298 2.158461 11.223082
endloop
endfacet
facet normal -0.999939 0.011072 0.000000
outer loop
vertex -5.553016 -0.615717 10.440525
vertex -5.522298 2.158461 11.223082
vertex -5.522298 2.158462 10.440525
endloop
endfacet
facet normal 0.000000 1.000000 0.000000
outer loop
vertex -5.426664 2.685180 10.601250
vertex -5.426664 2.685180 11.062358
vertex -5.152298 2.685180 11.062358
endloop
endfacet
facet normal 0.000000 1.000000 0.000000
outer loop
vertex -5.426664 2.685180 10.601250
vertex -5.152298 2.685180 11.062358
vertex -5.152298 2.685180 10.601250
endloop
endfacet
facet normal 1.000000 0.000000 0.000000
outer loop
vertex -5.056664 2.158462 10.440525
vertex -5.056664 2.158462 11.223082
vertex -5.056664 -0.615717 11.223082
endloop
endfacet
facet normal 1.000000 0.000000 0.000000
outer loop
vertex -5.056664 2.158462 10.440525
vertex -5.056664 -0.615717 11.223082
vertex -5.056664 -0.615717 10.440525
endloop
endfacet
facet normal 0.000000 0.000000 1.000000
outer loop
vertex -5.553016 -0.615717 11.223082
vertex -5.056664 -0.615717 11.223082
vertex -5.056664 2.158462 11.223082
endloop
endfacet
facet normal 0.000001 0.000000 1.000000
outer loop
vertex -5.553016 -0.615717 11.223082
vertex -5.056664 2.158462 11.223082
vertex -5.522298 2.158461 11.223082
endloop
endfacet
facet normal 0.000000 0.000000 -1.000000
outer loop
vertex -5.056664 -0.615717 10.440525
vertex -5.553016 -0.615717 10.440525
vertex -5.522298 2.158462 10.440525
endloop
endfacet
facet normal -0.000001 0.000000 -1.000000
outer loop
vertex -5.056664 -0.615717 10.440525
vertex -5.522298 2.158462 10.440525
vertex -5.056664 2.158462 10.440525
endloop
endfacet
facet normal -0.983914 0.178645 0.000000
outer loop
vertex -5.522298 2.158462 10.440525
vertex -5.522298 2.158461 11.223082
vertex -5.426664 2.685180 11.062358
endloop
endfacet
facet normal -0.983913 0.178646 0.000000
outer loop
vertex -5.522298 2.158462 10.440525
vertex -5.426664 2.685180 11.062358
vertex -5.426664 2.685180 10.601250
endloop
endfacet
facet normal -0.000004 0.291857 0.956462
outer loop
vertex -5.522298 2.158461 11.223082
vertex -5.056664 2.158462 11.223082
vertex -5.152298 2.685180 11.062358
endloop
endfacet
facet normal 0.000000 0.291856 0.956462
outer loop
vertex -5.522298 2.158461 11.223082
vertex -5.152298 2.685180 11.062358
vertex -5.426664 2.685180 11.062358
endloop
endfacet
facet normal 0.983914 0.178644 0.000000
outer loop
vertex -5.056664 2.158462 11.223082
vertex -5.056664 2.158462 10.440525
vertex -5.152298 2.685180 10.601250
endloop
endfacet
facet normal 0.983914 0.178644 0.000000
outer loop
vertex -5.056664 2.158462 11.223082
vertex -5.152298 2.685180 10.601250
vertex -5.152298 2.685180 11.062358
endloop
endfacet
facet normal -0.000004 0.291858 -0.956462
outer loop
vertex -5.056664 2.158462 10.440525
vertex -5.522298 2.158462 10.440525
vertex -5.426664 2.685180 10.601250
endloop
endfacet
facet normal 0.000000 0.291858 -0.956462
outer loop
vertex -5.056664 2.158462 10.440525
vertex -5.426664 2.685180 10.601250
vertex -5.152298 2.685180 10.601250
endloop
endfacet
facet normal -0.000000 0.781487 0.623921
outer loop
vertex -9.818583 2.607206 10.676593
vertex -9.818583 1.378865 12.215142
vertex -5.298166 1.378865 12.215142
endloop
endfacet
facet normal -0.000000 0.781487 0.623921
outer loop
vertex -9.818583 2.607206 10.676593
vertex -5.298166 1.378865 12.215142
vertex -5.298166 2.607208 10.676593
endloop
endfacet
facet normal -0.000000 0.776716 -0.629851
outer loop
vertex -9.818583 1.392449 9.178586
vertex -9.818583 2.607206 10.676593
vertex -5.298166 2.607208 10.676593
endloop
endfacet
facet normal -0.000000 0.776716 -0.629851
outer loop
vertex -9.818583 1.392449 9.178586
vertex -5.298166 2.607208 10.676593
vertex -5.298167 1.392450 9.178586
endloop
endfacet
facet normal -1.000000 -0.000001 0.000000
outer loop
vertex -9.586073 -0.577108 17.653738
vertex -9.586073 -0.577108 18.362856
vertex -9.586073 0.756715 18.362858
endloop
endfacet
facet normal -1.000000 0.000000 0.000000
outer loop
vertex -9.586073 -0.577108 17.653738
vertex -9.586073 0.756715 18.362858
vertex -9.586073 1.019651 17.653738
endloop
endfacet
facet normal 0.000000 0.937620 0.347662
outer loop
vertex -9.586073 1.019651 17.653738
vertex -9.586073 0.756715 18.362858
vertex -8.611357 0.756715 18.362858
endloop
endfacet
facet normal 0.000000 0.937620 0.347662
outer loop
vertex -9.586073 1.019651 17.653738
vertex -8.611357 0.756715 18.362858
vertex -8.611357 1.019652 17.653738
endloop
endfacet
facet normal 1.000000 -0.000000 0.000000
outer loop
vertex -8.611357 1.019652 17.653738
vertex -8.611357 0.756715 18.362858
vertex -8.611357 -0.577107 18.362856
endloop
endfacet
facet normal 1.000000 0.000000 0.000000
outer loop
vertex -8.611357 1.019652 17.653738
vertex -8.611357 -0.577107 18.362856
vertex -8.611357 -0.577107 17.653738
endloop
endfacet
facet normal 0.000000 -1.000000 0.000000
outer loop
vertex -8.611357 -0.577107 17.653738
vertex -8.611357 -0.577107 18.362856
vertex -9.586073 -0.577108 18.362856
endloop
endfacet
facet normal 0.000000 -1.000000 0.000000
outer loop
vertex -8.611357 -0.577107 17.653738
vertex -9.586073 -0.577108 18.362856
vertex -9.586073 -0.577108 17.653738
endloop
endfacet
facet normal -0.000003 -0.000001 1.000000
outer loop
vertex -9.586073 -0.577108 18.362856
vertex -8.611357 -0.577107 18.362856
vertex -8.611357 0.756715 18.362858
endloop
endfacet
facet normal 0.000002 -0.000001 1.000000
outer loop
vertex -9.586073 -0.577108 18.362856
vertex -8.611357 0.756715 18.362858
vertex -9.586073 0.756715 18.362858
endloop
endfacet
facet normal 0.000000 0.000000 -1.000000
outer loop
vertex -8.611357 -0.577107 17.653738
vertex -9.586073 -0.577108 17.653738
vertex -9.586073 1.019651 17.653738
endloop
endfacet
facet normal -0.000001 0.000000 -1.000000
outer loop
vertex -8.611357 -0.577107 17.653738
vertex -9.586073 1.019651 17.653738
vertex -8.611357 1.019652 17.653738
endloop
endfacet
facet normal -0.000000 0.000000 -1.000000
outer loop
vertex -5.528643 -0.583199 15.144780
vertex -9.589588 -0.583199 15.144782
vertex -9.589588 1.510981 15.144782
endloop
endfacet
facet normal -0.000000 0.000001 -1.000000
outer loop
vertex -5.528643 -0.583199 15.144780
vertex -9.589588 1.510981 15.144782
vertex -5.528643 1.510981 15.144782
endloop
endfacet
facet normal 0.000000 0.000000 1.000000
outer loop
vertex -5.528643 1.510981 17.861610
vertex -9.589588 1.510981 17.861610
vertex -9.589588 -0.583200 17.861610
endloop
endfacet
facet normal -0.000000 0.000000 1.000000
outer loop
vertex -5.528643 1.510981 17.861610
vertex -9.589588 -0.583200 17.861610
vertex -5.528642 -0.583199 17.861610
endloop
endfacet
facet normal -1.000000 0.000000 0.000000
outer loop
vertex -9.589588 -0.583199 15.144782
vertex -9.589588 -0.583200 17.861610
vertex -9.589588 1.510981 17.861610
endloop
endfacet
facet normal -1.000000 0.000000 0.000000
outer loop
vertex -9.589588 -0.583199 15.144782
vertex -9.589588 1.510981 17.861610
vertex -9.589588 1.510981 15.144782
endloop
endfacet
facet normal 1.000000 0.000000 -0.000000
outer loop
vertex -5.528642 -0.583199 17.861610
vertex -5.528643 -0.583199 15.144780
vertex -5.528643 1.510981 15.144782
endloop
endfacet
facet normal 1.000000 0.000000 0.000000
outer loop
vertex -5.528642 -0.583199 17.861610
vertex -5.528643 1.510981 15.144782
vertex -5.528643 1.510981 17.861610
endloop
endfacet
facet normal -0.999639 0.026871 0.000000
outer loop
vertex -9.589588 1.510981 15.144782
vertex -9.589588 1.510981 17.861610
vertex -9.560503 2.592964 16.503197
endloop
endfacet
facet normal 0.999978 -0.006619 0.000000
outer loop
vertex -5.528643 1.510981 17.861610
vertex -5.528643 1.510981 15.144782
vertex -5.521481 2.592965 16.503197
endloop
endfacet
facet normal -0.999939 0.011072 0.000000
outer loop
vertex -5.553016 -0.615717 16.263088
vertex -5.553016 -0.615717 17.045645
vertex -5.522298 2.158461 17.045645
endloop
endfacet
facet normal -0.999939 0.011072 0.000000
outer loop
vertex -5.553016 -0.615717 16.263088
vertex -5.522298 2.158461 17.045645
vertex -5.522298 2.158462 16.263088
endloop
endfacet
facet normal 0.000000 1.000000 0.000000
outer loop
vertex -5.426664 2.685180 16.423813
vertex -5.426664 2.685180 16.884920
vertex -5.152298 2.685180 16.884920
endloop
endfacet
facet normal 0.000000 1.000000 0.000000
outer loop
vertex -5.426664 2.685180 16.423813
vertex -5.152298 2.685180 16.884920
vertex -5.152298 2.685180 16.423813
endloop
endfacet
facet normal 1.000000 0.000000 0.000000
outer loop
vertex -5.056664 2.158462 16.263088
vertex -5.056664 2.158461 17.045645
vertex -5.056664 -0.615717 17.045645
endloop
endfacet
facet normal 1.000000 0.000000 0.000000
outer loop
vertex -5.056664 2.158462 16.263088
vertex -5.056664 -0.615717 17.045645
vertex -5.056664 -0.615717 16.263088
endloop
endfacet
facet normal 0.000000 0.000000 1.000000
outer loop
vertex -5.553016 -0.615717 17.045645
vertex -5.056664 -0.615717 17.045645
vertex -5.056664 2.158461 17.045645
endloop
endfacet
facet normal 0.000000 0.000000 1.000000
outer loop
vertex -5.553016 -0.615717 17.045645
vertex -5.056664 2.158461 17.045645
vertex -5.522298 2.158461 17.045645
endloop
endfacet
facet normal 0.000000 0.000000 -1.000000
outer loop
vertex -5.056664 -0.615717 16.263088
vertex -5.553016 -0.615717 16.263088
vertex -5.522298 2.158462 16.263088
endloop
endfacet
facet normal -0.000000 0.000000 -1.000000
outer loop
vertex -5.056664 -0.615717 16.263088
vertex -5.522298 2.158462 16.263088
vertex -5.056664 2.158462 16.263088
endloop
endfacet
facet normal -0.983914 0.178645 0.000000
outer loop
vertex -5.522298 2.158462 16.263088
vertex -5.522298 2.158461 17.045645
vertex -5.426664 2.685180 16.884920
endloop
endfacet
facet normal -0.983913 0.178646 0.000000
outer loop
vertex -5.522298 2.158462 16.263088
vertex -5.426664 2.685180 16.884920
vertex -5.426664 2.685180 16.423813
endloop
endfacet
facet normal 0.000000 0.291858 0.956462
outer loop
vertex -5.522298 2.158461 17.045645
vertex -5.056664 2.158461 17.045645
vertex -5.152298 2.685180 16.884920
endloop
endfacet
facet normal 0.000000 0.291857 0.956462
outer loop
vertex -5.522298 2.158461 17.045645
vertex -5.152298 2.685180 16.884920
vertex -5.426664 2.685180 16.884920
endloop
endfacet
facet normal 0.983914 0.178644 0.000000
outer loop
vertex -5.056664 2.158461 17.045645
vertex -5.056664 2.158462 16.263088
vertex -5.152298 2.685180 16.423813
endloop
endfacet
facet normal 0.983913 0.178646 0.000000
outer loop
vertex -5.056664 2.158461 17.045645
vertex -5.152298 2.685180 16.423813
vertex -5.152298 2.685180 16.884920
endloop
endfacet
facet normal 0.000000 0.291858 -0.956462
outer loop
vertex -5.056664 2.158462 16.263088
vertex -5.522298 2.158462 16.263088
vertex -5.426664 2.685180 16.423813
endloop
endfacet
facet normal 0.000000 0.291858 -0.956462
outer loop
vertex -5.056664 2.158462 16.263088
vertex -5.426664 2.685180 16.423813
vertex -5.152298 2.685180 16.423813
endloop
endfacet
facet normal 0.000000 0.781487 0.623921
outer loop
vertex -9.818583 2.607206 16.499157
vertex -9.818583 1.378865 18.037706
vertex -5.298166 1.378865 18.037706
endloop
endfacet
facet normal -0.000000 0.781487 0.623921
outer loop
vertex -9.818583 2.607206 16.499157
vertex -5.298166 1.378865 18.037706
vertex -5.298166 2.607207 16.499157
endloop
endfacet
facet normal -0.000001 0.776716 -0.629851
outer loop
vertex -9.818583 1.392449 15.001148
vertex -9.818583 2.607206 16.499157
vertex -5.298166 2.607207 16.499157
endloop
endfacet
facet normal 0.000000 0.776716 -0.629851
outer loop
vertex -9.818583 1.392449 15.001148
vertex -5.298166 2.607207 16.499157
vertex -5.298167 1.392450 15.001148
endloop
endfacet
facet normal -1.000000 -0.000000 0.000000
outer loop
vertex -9.586073 -0.577108 23.242960
vertex -9.586073 -0.577108 23.952078
vertex -9.586073 0.756715 23.952082
endloop
endfacet
facet normal -1.000000 0.000000 0.000000
outer loop
vertex -9.586073 -0.577108 23.242960
vertex -9.586073 0.756715 23.952082
vertex -9.586073 1.019651 23.242960
endloop
endfacet
facet normal 0.000000 0.937620 0.347662
outer loop
vertex -9.586073 1.019651 23.242960
vertex -9.586073 0.756715 23.952082
vertex -8.611357 0.756715 23.952082
endloop
endfacet
facet normal 0.000000 0.937620 0.347662
outer loop
vertex -9.586073 1.019651 23.242960
vertex -8.611357 0.756715 23.952082
vertex -8.611357 1.019652 23.242960
endloop
endfacet
facet normal 1.000000 0.000000 0.000000
outer loop
vertex -8.611357 1.019652 23.242960
vertex -8.611357 0.756715 23.952082
vertex -8.611357 -0.577107 23.952078
endloop
endfacet
facet normal 1.000000 0.000000 0.000000
outer loop
vertex -8.611357 1.019652 23.242960
vertex -8.611357 -0.577107 23.952078
vertex -8.611357 -0.577108 23.242960
endloop
endfacet
facet normal 0.000000 -1.000000 0.000000
outer loop
vertex -8.611357 -0.577108 23.242960
vertex -8.611357 -0.577107 23.952078
vertex -9.586073 -0.577108 23.952078
endloop
endfacet
facet normal 0.000000 -1.000000 0.000000
outer loop
vertex -8.611357 -0.577108 23.242960
vertex -9.586073 -0.577108 23.952078
vertex -9.586073 -0.577108 23.242960
endloop
endfacet
facet normal -0.000003 -0.000003 1.000000
outer loop
vertex -9.586073 -0.577108 23.952078
vertex -8.611357 -0.577107 23.952078
vertex -8.611357 0.756715 23.952082
endloop
endfacet
facet normal 0.000004 -0.000003 1.000000
outer loop
vertex -9.586073 -0.577108 23.952078
vertex -8.611357 0.756715 23.952082
vertex -9.586073 0.756715 23.952082
endloop
endfacet
facet normal 0.000000 0.000000 -1.000000
outer loop
vertex -8.611357 -0.577108 23.242960
vertex -9.586073 -0.577108 23.242960
vertex -9.586073 1.019651 23.242960
endloop
endfacet
facet normal 0.000003 0.000000 -1.000000
outer loop
vertex -8.611357 -0.577108 23.242960
vertex -9.586073 1.019651 23.242960
vertex -8.611357 1.019652 23.242960
endloop
endfacet
facet normal 0.000000 0.000000 -1.000000
outer loop
vertex -5.528643 -0.583199 20.734005
vertex -9.589588 -0.583199 20.734005
vertex -9.589588 1.510981 20.734005
endloop
endfacet
facet normal 0.000000 0.000000 -1.000000
outer loop
vertex -5.528643 -0.583199 20.734005
vertex -9.589588 1.510981 20.734005
vertex -5.528643 1.510982 20.734005
endloop
endfacet
facet normal -0.000001 0.000000 1.000000
outer loop
vertex -5.528643 1.510982 23.450832
vertex -9.589588 1.510981 23.450832
vertex -9.589588 -0.583200 23.450832
endloop
endfacet
facet normal 0.000001 0.000000 1.000000
outer loop
vertex -5.528643 1.510982 23.450832
vertex -9.589588 -0.583200 23.450832
vertex -5.528642 -0.583199 23.450832
endloop
endfacet
facet normal -1.000000 0.000000 0.000000
outer loop
vertex -9.589588 -0.583199 20.734005
vertex -9.589588 -0.583200 23.450832
vertex -9.589588 1.510981 23.450832
endloop
endfacet
facet normal -1.000000 0.000000 0.000000
outer loop
vertex -9.589588 -0.583199 20.734005
vertex -9.589588 1.510981 23.450832
vertex -9.589588 1.510981 20.734005
endloop
endfacet
facet normal 1.000000 0.000000 -0.000000
outer loop
vertex -5.528642 -0.583199 23.450832
vertex -5.528643 -0.583199 20.734005
vertex -5.528643 1.510982 20.734005
endloop
endfacet
facet normal 1.000000 0.000000 0.000000
outer loop
vertex -5.528642 -0.583199 23.450832
vertex -5.528643 1.510982 20.734005
vertex -5.528643 1.510982 23.450832
endloop
endfacet
facet normal -0.999639 0.026871 0.000000
outer loop
vertex -9.589588 1.510981 20.734005
vertex -9.589588 1.510981 23.450832
vertex -9.560503 2.592964 22.092421
endloop
endfacet
facet normal 0.999978 -0.006619 0.000000
outer loop
vertex -5.528643 1.510982 23.450832
vertex -5.528643 1.510982 20.734005
vertex -5.521481 2.592965 22.092421
endloop
endfacet
facet normal -0.999939 0.011072 0.000000
outer loop
vertex -5.553016 -0.615717 21.852312
vertex -5.553016 -0.615717 22.634869
vertex -5.522298 2.158461 22.634869
endloop
endfacet
facet normal -0.999939 0.011072 0.000000
outer loop
vertex -5.553016 -0.615717 21.852312
vertex -5.522298 2.158461 22.634869
vertex -5.522298 2.158462 21.852312
endloop
endfacet
facet normal 0.000000 1.000000 -0.000001
outer loop
vertex -5.426664 2.685180 22.013037
vertex -5.426664 2.685180 22.474144
vertex -5.152298 2.685180 22.474144
endloop
endfacet
facet normal 0.000000 1.000000 0.000000
outer loop
vertex -5.426664 2.685180 22.013037
vertex -5.152298 2.685180 22.474144
vertex -5.152298 2.685180 22.013037
endloop
endfacet
facet normal 1.000000 0.000000 0.000000
outer loop
vertex -5.056664 2.158462 21.852312
vertex -5.056664 2.158462 22.634869
vertex -5.056664 -0.615717 22.634869
endloop
endfacet
facet normal 1.000000 0.000000 0.000000
outer loop
vertex -5.056664 2.158462 21.852312
vertex -5.056664 -0.615717 22.634869
vertex -5.056664 -0.615717 21.852312
endloop
endfacet
facet normal 0.000000 0.000000 1.000000
outer loop
vertex -5.553016 -0.615717 22.634869
vertex -5.056664 -0.615717 22.634869
vertex -5.056664 2.158462 22.634869
endloop
endfacet
facet normal 0.000002 0.000000 1.000000
outer loop
vertex -5.553016 -0.615717 22.634869
vertex -5.056664 2.158462 22.634869
vertex -5.522298 2.158461 22.634869
endloop
endfacet
facet normal 0.000000 0.000000 -1.000000
outer loop
vertex -5.056664 -0.615717 21.852312
vertex -5.553016 -0.615717 21.852312
vertex -5.522298 2.158462 21.852312
endloop
endfacet
facet normal 0.000000 0.000000 -1.000000
outer loop
vertex -5.056664 -0.615717 21.852312
vertex -5.522298 2.158462 21.852312
vertex -5.056664 2.158462 21.852312
endloop
endfacet
facet normal -0.983914 0.178645 0.000000
outer loop
vertex -5.522298 2.158462 21.852312
vertex -5.522298 2.158461 22.634869
vertex -5.426664 2.685180 22.474144
endloop
endfacet
facet normal -0.983913 0.178647 0.000000
outer loop
vertex -5.522298 2.158462 21.852312
vertex -5.426664 2.685180 22.474144
vertex -5.426664 2.685180 22.013037
endloop
endfacet
facet normal 0.000000 0.291858 0.956462
outer loop
vertex -5.522298 2.158461 22.634869
vertex -5.056664 2.158462 22.634869
vertex -5.152298 2.685180 22.474144
endloop
endfacet
facet normal 0.000000 0.291857 0.956462
outer loop
vertex -5.522298 2.158461 22.634869
vertex -5.152298 2.685180 22.474144
vertex -5.426664 2.685180 22.474144
endloop
endfacet
facet normal 0.983914 0.178644 0.000000
outer loop
vertex -5.056664 2.158462 22.634869
vertex -5.056664 2.158462 21.852312
vertex -5.152298 2.685180 22.013037
endloop
endfacet
facet normal 0.983914 0.178644 -0.000000
outer loop
vertex -5.056664 2.158462 22.634869
vertex -5.152298 2.685180 22.013037
vertex -5.152298 2.685180 22.474144
endloop
endfacet
facet normal 0.000000 0.291858 -0.956462
outer loop
vertex -5.056664 2.158462 21.852312
vertex -5.522298 2.158462 21.852312
vertex -5.426664 2.685180 22.013037
endloop
endfacet
facet normal 0.000000 0.291858 -0.956462
outer loop
vertex -5.056664 2.158462 21.852312
vertex -5.426664 2.685180 22.013037
vertex -5.152298 2.685180 22.013037
endloop
endfacet
facet normal -0.000000 0.781487 0.623921
outer loop
vertex -9.818583 2.607206 22.088379
vertex -9.818583 1.378865 23.626928
vertex -5.298166 1.378865 23.626928
endloop
endfacet
facet normal 0.000000 0.781487 0.623921
outer loop
vertex -9.818583 2.607206 22.088379
vertex -5.298166 1.378865 23.626928
vertex -5.298166 2.607207 22.088379
endloop
endfacet
facet normal -0.000000 0.776716 -0.629852
outer loop
vertex -9.818583 1.392449 20.590374
vertex -9.818583 2.607206 22.088379
vertex -5.298166 2.607207 22.088379
endloop
endfacet
facet normal -0.000000 0.776715 -0.629852
outer loop
vertex -9.818583 1.392449 20.590374
vertex -5.298166 2.607207 22.088379
vertex -5.298167 1.392450 20.590374
endloop
endfacet
facet normal 0.000001 0.000000 -1.000000
outer loop
vertex 9.346590 0.195913 12.758096
vertex 6.836914 0.191792 12.758096
vertex 8.089691 1.477539 12.758096
endloop
endfacet
facet normal -0.000001 0.000000 -1.000000
outer loop
vertex 9.346590 0.195913 12.758096
vertex 9.350712 -0.574710 12.758096
vertex 6.836914 -0.578831 12.758096
endloop
endfacet
facet normal 0.000001 0.000000 -1.000000
outer loop
vertex 9.346590 0.195913 12.758096
vertex 6.836914 -0.578831 12.758096
vertex 6.836914 0.191792 12.758096
endloop
endfacet
facet normal 0.999985 0.005349 -0.000758
outer loop
vertex 9.350712 -0.574710 12.758096
vertex 9.346590 0.195913 12.758096
vertex 9.348650 0.193853 15.459511
endloop
endfacet
facet normal 0.999996 0.002675 0.000002
outer loop
vertex 9.350712 -0.574710 12.758096
vertex 9.348650 0.193853 15.459511
vertex 9.350712 -0.576770 15.459511
endloop
endfacet
facet normal -1.000000 0.000000 0.000000
outer loop
vertex 6.836914 0.191792 12.758096
vertex 6.836914 -0.578831 12.758096
vertex 6.836914 -0.576770 15.459511
endloop
endfacet
facet normal -0.999996 0.002673 0.000760
outer loop
vertex 6.836914 0.191792 12.758096
vertex 6.836914 -0.576770 15.459511
vertex 6.838974 0.193853 15.459511
endloop
endfacet
facet normal 0.000000 -0.002446 0.999997
outer loop
vertex 6.838974 0.193853 15.459511
vertex 9.348650 0.193853 15.459511
vertex 8.097933 1.477539 15.462650
endloop
endfacet
facet normal -0.000000 0.000000 1.000000
outer loop
vertex 6.838974 0.193853 15.459511
vertex 6.836914 -0.576770 15.459511
vertex 9.350712 -0.576770 15.459511
endloop
endfacet
facet normal 0.000000 0.000000 1.000000
outer loop
vertex 6.838974 0.193853 15.459511
vertex 9.350712 -0.576770 15.459511
vertex 9.348650 0.193853 15.459511
endloop
endfacet
facet normal -0.714700 0.699431 -0.000000
outer loop
vertex 8.089691 1.477538 12.610303
vertex 6.740854 0.099254 12.610303
vertex 6.740854 0.099254 15.608931
endloop
endfacet
facet normal -0.714700 0.699431 -0.000000
outer loop
vertex 8.089691 1.477538 12.610303
vertex 6.740854 0.099254 15.608931
vertex 8.089691 1.477539 15.608931
endloop
endfacet
facet normal 0.712583 0.701588 -0.000000
outer loop
vertex 9.442652 0.103375 12.610303
vertex 8.089691 1.477538 12.610303
vertex 8.089691 1.477539 15.608931
endloop
endfacet
facet normal 0.712583 0.701588 -0.000000
outer loop
vertex 9.442652 0.103375 12.610303
vertex 8.089691 1.477539 15.608931
vertex 9.442652 0.103376 15.608929
endloop
endfacet
facet normal 0.000000 0.000000 -1.000000
outer loop
vertex 8.283968 1.250166 13.860001
vertex 7.875407 1.250166 13.860001
vertex 7.875407 1.765227 13.860001
endloop
endfacet
facet normal 0.000000 0.000000 -1.000000
outer loop
vertex 8.283968 1.250166 13.860001
vertex 7.875407 1.765227 13.860001
vertex 8.283968 1.765227 13.860001
endloop
endfacet
facet normal 0.000000 1.000000 0.000000
outer loop
vertex 8.283968 1.765227 13.860001
vertex 7.875407 1.765227 13.860001
vertex 7.875407 1.765227 14.268560
endloop
endfacet
facet normal 0.000000 1.000000 0.000000
outer loop
vertex 8.283968 1.765227 13.860001
vertex 7.875407 1.765227 14.268560
vertex 8.283968 1.765227 14.268560
endloop
endfacet
facet normal 0.000000 0.000000 1.000000
outer loop
vertex 8.283968 1.765227 14.268560
vertex 7.875407 1.765227 14.268560
vertex 7.875407 1.250166 14.268560
endloop
endfacet
facet normal 0.000000 0.000000 1.000000
outer loop
vertex 8.283968 1.765227 14.268560
vertex 7.875407 1.250166 14.268560
vertex 8.283968 1.250166 14.268560
endloop
endfacet
facet normal -1.000000 0.000000 0.000000
outer loop
vertex 7.875407 1.250166 13.860001
vertex 7.875407 1.250166 14.268560
vertex 7.875407 1.765227 14.268560
endloop
endfacet
facet normal -1.000000 0.000000 0.000000
outer loop
vertex 7.875407 1.250166 13.860001
vertex 7.875407 1.765227 14.268560
vertex 7.875407 1.765227 13.860001
endloop
endfacet
facet normal 1.000000 0.000000 0.000000
outer loop
vertex 8.283968 1.250166 14.268560
vertex 8.283968 1.250166 13.860001
vertex 8.283968 1.765227 13.860001
endloop
endfacet
facet normal 1.000000 0.000000 0.000000
outer loop
vertex 8.283968 1.250166 14.268560
vertex 8.283968 1.765227 13.860001
vertex 8.283968 1.765227 14.268560
endloop
endfacet
endsolid Exported from Blender-2.80 (sub 75)
