solid Exported from Blender-2.80 (sub 75)
facet normal -0.590694 0.000000 0.806895
outer loop
vertex 1.000000 -0.950000 -0.950000
vertex 1.000000 0.950000 -0.950000
vertex 0.971133 0.971133 -0.971133
endloop
endfacet
facet normal -0.590689 0.000000 0.806899
outer loop
vertex 1.000000 -0.950000 -0.950000
vertex 0.971133 0.971133 -0.971133
vertex 0.971133 -0.971133 -0.971133
endloop
endfacet
facet normal 0.939071 0.000000 0.343723
outer loop
vertex 1.000000 0.950000 -0.950000
vertex 1.000000 -0.950000 -0.950000
vertex 1.028867 -1.028867 -1.028867
endloop
endfacet
facet normal 0.939070 0.000000 0.343725
outer loop
vertex 1.000000 0.950000 -0.950000
vertex 1.028867 -1.028867 -1.028867
vertex 1.028867 1.028867 -1.028867
endloop
endfacet
facet normal -0.590692 -0.806897 0.000000
outer loop
vertex 1.000000 0.950000 -0.950000
vertex 1.000000 0.950000 0.950000
vertex 0.971133 0.971133 0.971133
endloop
endfacet
facet normal -0.590691 -0.806898 0.000000
outer loop
vertex 1.000000 0.950000 -0.950000
vertex 0.971133 0.971133 0.971133
vertex 0.971133 0.971133 -0.971133
endloop
endfacet
facet normal 0.939070 -0.343725 0.000000
outer loop
vertex 1.000000 0.950000 0.950000
vertex 1.000000 0.950000 -0.950000
vertex 1.028867 1.028867 -1.028867
endloop
endfacet
facet normal 0.939072 -0.343720 0.000000
outer loop
vertex 1.000000 0.950000 0.950000
vertex 1.028867 1.028867 -1.028867
vertex 1.028867 1.028867 1.028867
endloop
endfacet
facet normal -0.590694 0.000000 -0.806895
outer loop
vertex 1.000000 0.950000 0.950000
vertex 1.000000 -0.950000 0.950000
vertex 0.971133 -0.971133 0.971133
endloop
endfacet
facet normal -0.590689 0.000000 -0.806899
outer loop
vertex 1.000000 0.950000 0.950000
vertex 0.971133 -0.971133 0.971133
vertex 0.971133 0.971133 0.971133
endloop
endfacet
facet normal 0.939071 0.000000 -0.343723
outer loop
vertex 1.000000 -0.950000 0.950000
vertex 1.000000 0.950000 0.950000
vertex 1.028867 1.028867 1.028867
endloop
endfacet
facet normal 0.939070 0.000000 -0.343725
outer loop
vertex 1.000000 -0.950000 0.950000
vertex 1.028867 1.028867 1.028867
vertex 1.028867 -1.028867 1.028867
endloop
endfacet
facet normal -0.590692 0.806897 0.000000
outer loop
vertex 1.000000 -0.950000 0.950000
vertex 1.000000 -0.950000 -0.950000
vertex 0.971133 -0.971133 -0.971133
endloop
endfacet
facet normal -0.590691 0.806898 0.000000
outer loop
vertex 1.000000 -0.950000 0.950000
vertex 0.971133 -0.971133 -0.971133
vertex 0.971133 -0.971133 0.971133
endloop
endfacet
facet normal 0.939070 0.343725 0.000000
outer loop
vertex 1.000000 -0.950000 -0.950000
vertex 1.000000 -0.950000 0.950000
vertex 1.028867 -1.028867 1.028867
endloop
endfacet
facet normal 0.939072 0.343720 0.000000
outer loop
vertex 1.000000 -0.950000 -0.950000
vertex 1.028867 -1.028867 1.028867
vertex 1.028867 -1.028867 -1.028867
endloop
endfacet
facet normal -0.806897 0.000000 -0.590692
outer loop
vertex 0.950000 -0.950000 1.000000
vertex 0.950000 0.950000 1.000000
vertex 0.971133 0.971133 0.971133
endloop
endfacet
facet normal -0.806898 0.000000 -0.590691
outer loop
vertex 0.950000 -0.950000 1.000000
vertex 0.971133 0.971133 0.971133
vertex 0.971133 -0.971133 0.971133
endloop
endfacet
facet normal -0.343725 0.000000 0.939070
outer loop
vertex 0.950000 0.950000 1.000000
vertex 0.950000 -0.950000 1.000000
vertex 1.028867 -1.028867 1.028867
endloop
endfacet
facet normal -0.343720 0.000000 0.939072
outer loop
vertex 0.950000 0.950000 1.000000
vertex 1.028867 -1.028867 1.028867
vertex 1.028867 1.028867 1.028867
endloop
endfacet
facet normal 0.000000 -0.806895 -0.590694
outer loop
vertex 0.950000 0.950000 1.000000
vertex -0.950000 0.950000 1.000000
vertex -0.971133 0.971133 0.971133
endloop
endfacet
facet normal 0.000000 -0.806899 -0.590689
outer loop
vertex 0.950000 0.950000 1.000000
vertex -0.971133 0.971133 0.971133
vertex 0.971133 0.971133 0.971133
endloop
endfacet
facet normal 0.000000 -0.343723 0.939071
outer loop
vertex -0.950000 0.950000 1.000000
vertex 0.950000 0.950000 1.000000
vertex 1.028867 1.028867 1.028867
endloop
endfacet
facet normal 0.000000 -0.343725 0.939070
outer loop
vertex -0.950000 0.950000 1.000000
vertex 1.028867 1.028867 1.028867
vertex -1.028867 1.028867 1.028867
endloop
endfacet
facet normal 0.806897 0.000000 -0.590692
outer loop
vertex -0.950000 0.950000 1.000000
vertex -0.950000 -0.950000 1.000000
vertex -0.971133 -0.971133 0.971133
endloop
endfacet
facet normal 0.806898 0.000000 -0.590691
outer loop
vertex -0.950000 0.950000 1.000000
vertex -0.971133 -0.971133 0.971133
vertex -0.971133 0.971133 0.971133
endloop
endfacet
facet normal 0.343725 0.000000 0.939070
outer loop
vertex -0.950000 -0.950000 1.000000
vertex -0.950000 0.950000 1.000000
vertex -1.028867 1.028867 1.028867
endloop
endfacet
facet normal 0.343720 0.000000 0.939072
outer loop
vertex -0.950000 -0.950000 1.000000
vertex -1.028867 1.028867 1.028867
vertex -1.028867 -1.028867 1.028867
endloop
endfacet
facet normal 0.000000 0.806895 -0.590694
outer loop
vertex -0.950000 -0.950000 1.000000
vertex 0.950000 -0.950000 1.000000
vertex 0.971133 -0.971133 0.971133
endloop
endfacet
facet normal 0.000000 0.806899 -0.590689
outer loop
vertex -0.950000 -0.950000 1.000000
vertex 0.971133 -0.971133 0.971133
vertex -0.971133 -0.971133 0.971133
endloop
endfacet
facet normal 0.000000 0.343723 0.939071
outer loop
vertex 0.950000 -0.950000 1.000000
vertex -0.950000 -0.950000 1.000000
vertex -1.028867 -1.028867 1.028867
endloop
endfacet
facet normal 0.000000 0.343725 0.939070
outer loop
vertex 0.950000 -0.950000 1.000000
vertex -1.028867 -1.028867 1.028867
vertex 1.028867 -1.028867 1.028867
endloop
endfacet
facet normal 0.590694 0.000000 -0.806895
outer loop
vertex -1.000000 -0.950000 0.950000
vertex -1.000000 0.950000 0.950000
vertex -0.971133 0.971133 0.971133
endloop
endfacet
facet normal 0.590689 0.000000 -0.806899
outer loop
vertex -1.000000 -0.950000 0.950000
vertex -0.971133 0.971133 0.971133
vertex -0.971133 -0.971133 0.971133
endloop
endfacet
facet normal -0.939071 0.000000 -0.343723
outer loop
vertex -1.000000 0.950000 0.950000
vertex -1.000000 -0.950000 0.950000
vertex -1.028867 -1.028867 1.028867
endloop
endfacet
facet normal -0.939070 0.000000 -0.343725
outer loop
vertex -1.000000 0.950000 0.950000
vertex -1.028867 -1.028867 1.028867
vertex -1.028867 1.028867 1.028867
endloop
endfacet
facet normal 0.590692 -0.806897 0.000000
outer loop
vertex -1.000000 0.950000 0.950000
vertex -1.000000 0.950000 -0.950000
vertex -0.971133 0.971133 -0.971133
endloop
endfacet
facet normal 0.590691 -0.806898 0.000000
outer loop
vertex -1.000000 0.950000 0.950000
vertex -0.971133 0.971133 -0.971133
vertex -0.971133 0.971133 0.971133
endloop
endfacet
facet normal -0.939070 -0.343725 0.000000
outer loop
vertex -1.000000 0.950000 -0.950000
vertex -1.000000 0.950000 0.950000
vertex -1.028867 1.028867 1.028867
endloop
endfacet
facet normal -0.939072 -0.343720 0.000000
outer loop
vertex -1.000000 0.950000 -0.950000
vertex -1.028867 1.028867 1.028867
vertex -1.028867 1.028867 -1.028867
endloop
endfacet
facet normal 0.590694 0.000000 0.806895
outer loop
vertex -1.000000 0.950000 -0.950000
vertex -1.000000 -0.950000 -0.950000
vertex -0.971133 -0.971133 -0.971133
endloop
endfacet
facet normal 0.590689 0.000000 0.806899
outer loop
vertex -1.000000 0.950000 -0.950000
vertex -0.971133 -0.971133 -0.971133
vertex -0.971133 0.971133 -0.971133
endloop
endfacet
facet normal -0.939071 0.000000 0.343723
outer loop
vertex -1.000000 -0.950000 -0.950000
vertex -1.000000 0.950000 -0.950000
vertex -1.028867 1.028867 -1.028867
endloop
endfacet
facet normal -0.939070 0.000000 0.343725
outer loop
vertex -1.000000 -0.950000 -0.950000
vertex -1.028867 1.028867 -1.028867
vertex -1.028867 -1.028867 -1.028867
endloop
endfacet
facet normal 0.590692 0.806897 0.000000
outer loop
vertex -1.000000 -0.950000 -0.950000
vertex -1.000000 -0.950000 0.950000
vertex -0.971133 -0.971133 0.971133
endloop
endfacet
facet normal 0.590691 0.806898 0.000000
outer loop
vertex -1.000000 -0.950000 -0.950000
vertex -0.971133 -0.971133 0.971133
vertex -0.971133 -0.971133 -0.971133
endloop
endfacet
facet normal -0.939070 0.343725 0.000000
outer loop
vertex -1.000000 -0.950000 0.950000
vertex -1.000000 -0.950000 -0.950000
vertex -1.028867 -1.028867 -1.028867
endloop
endfacet
facet normal -0.939072 0.343720 0.000000
outer loop
vertex -1.000000 -0.950000 0.950000
vertex -1.028867 -1.028867 -1.028867
vertex -1.028867 -1.028867 1.028867
endloop
endfacet
facet normal 0.806897 0.000000 0.590692
outer loop
vertex -0.950000 -0.950000 -1.000000
vertex -0.950000 0.950000 -1.000000
vertex -0.971133 0.971133 -0.971133
endloop
endfacet
facet normal 0.806898 0.000000 0.590691
outer loop
vertex -0.950000 -0.950000 -1.000000
vertex -0.971133 0.971133 -0.971133
vertex -0.971133 -0.971133 -0.971133
endloop
endfacet
facet normal 0.343725 0.000000 -0.939070
outer loop
vertex -0.950000 0.950000 -1.000000
vertex -0.950000 -0.950000 -1.000000
vertex -1.028867 -1.028867 -1.028867
endloop
endfacet
facet normal 0.343720 0.000000 -0.939072
outer loop
vertex -0.950000 0.950000 -1.000000
vertex -1.028867 -1.028867 -1.028867
vertex -1.028867 1.028867 -1.028867
endloop
endfacet
facet normal 0.000000 -0.806895 0.590694
outer loop
vertex -0.950000 0.950000 -1.000000
vertex 0.950000 0.950000 -1.000000
vertex 0.971133 0.971133 -0.971133
endloop
endfacet
facet normal 0.000000 -0.806899 0.590689
outer loop
vertex -0.950000 0.950000 -1.000000
vertex 0.971133 0.971133 -0.971133
vertex -0.971133 0.971133 -0.971133
endloop
endfacet
facet normal 0.000000 -0.343723 -0.939071
outer loop
vertex 0.950000 0.950000 -1.000000
vertex -0.950000 0.950000 -1.000000
vertex -1.028867 1.028867 -1.028867
endloop
endfacet
facet normal 0.000000 -0.343725 -0.939070
outer loop
vertex 0.950000 0.950000 -1.000000
vertex -1.028867 1.028867 -1.028867
vertex 1.028867 1.028867 -1.028867
endloop
endfacet
facet normal -0.806897 0.000000 0.590692
outer loop
vertex 0.950000 0.950000 -1.000000
vertex 0.950000 -0.950000 -1.000000
vertex 0.971133 -0.971133 -0.971133
endloop
endfacet
facet normal -0.806898 0.000000 0.590691
outer loop
vertex 0.950000 0.950000 -1.000000
vertex 0.971133 -0.971133 -0.971133
vertex 0.971133 0.971133 -0.971133
endloop
endfacet
facet normal -0.343725 0.000000 -0.939070
outer loop
vertex 0.950000 -0.950000 -1.000000
vertex 0.950000 0.950000 -1.000000
vertex 1.028867 1.028867 -1.028867
endloop
endfacet
facet normal -0.343720 0.000000 -0.939072
outer loop
vertex 0.950000 -0.950000 -1.000000
vertex 1.028867 1.028867 -1.028867
vertex 1.028867 -1.028867 -1.028867
endloop
endfacet
facet normal 0.000000 0.806895 0.590694
outer loop
vertex 0.950000 -0.950000 -1.000000
vertex -0.950000 -0.950000 -1.000000
vertex -0.971133 -0.971133 -0.971133
endloop
endfacet
facet normal 0.000000 0.806899 0.590689
outer loop
vertex 0.950000 -0.950000 -1.000000
vertex -0.971133 -0.971133 -0.971133
vertex 0.971133 -0.971133 -0.971133
endloop
endfacet
facet normal 0.000000 0.343723 -0.939071
outer loop
vertex -0.950000 -0.950000 -1.000000
vertex 0.950000 -0.950000 -1.000000
vertex 1.028867 -1.028867 -1.028867
endloop
endfacet
facet normal 0.000000 0.343725 -0.939070
outer loop
vertex -0.950000 -0.950000 -1.000000
vertex 1.028867 -1.028867 -1.028867
vertex -1.028867 -1.028867 -1.028867
endloop
endfacet
facet normal 0.000000 0.590692 -0.806897
outer loop
vertex 0.950000 -1.000000 0.950000
vertex -0.950000 -1.000000 0.950000
vertex -0.971133 -0.971133 0.971133
endloop
endfacet
facet normal 0.000000 0.590691 -0.806898
outer loop
vertex 0.950000 -1.000000 0.950000
vertex -0.971133 -0.971133 0.971133
vertex 0.971133 -0.971133 0.971133
endloop
endfacet
facet normal 0.000000 -0.939070 -0.343725
outer loop
vertex -0.950000 -1.000000 0.950000
vertex 0.950000 -1.000000 0.950000
vertex 1.028867 -1.028867 1.028867
endloop
endfacet
facet normal 0.000000 -0.939072 -0.343720
outer loop
vertex -0.950000 -1.000000 0.950000
vertex 1.028867 -1.028867 1.028867
vertex -1.028867 -1.028867 1.028867
endloop
endfacet
facet normal 0.806895 0.590694 0.000000
outer loop
vertex -0.950000 -1.000000 0.950000
vertex -0.950000 -1.000000 -0.950000
vertex -0.971133 -0.971133 -0.971133
endloop
endfacet
facet normal 0.806899 0.590689 0.000000
outer loop
vertex -0.950000 -1.000000 0.950000
vertex -0.971133 -0.971133 -0.971133
vertex -0.971133 -0.971133 0.971133
endloop
endfacet
facet normal 0.343723 -0.939071 0.000000
outer loop
vertex -0.950000 -1.000000 -0.950000
vertex -0.950000 -1.000000 0.950000
vertex -1.028867 -1.028867 1.028867
endloop
endfacet
facet normal 0.343725 -0.939070 0.000000
outer loop
vertex -0.950000 -1.000000 -0.950000
vertex -1.028867 -1.028867 1.028867
vertex -1.028867 -1.028867 -1.028867
endloop
endfacet
facet normal 0.000000 0.590692 0.806897
outer loop
vertex -0.950000 -1.000000 -0.950000
vertex 0.950000 -1.000000 -0.950000
vertex 0.971133 -0.971133 -0.971133
endloop
endfacet
facet normal 0.000000 0.590691 0.806898
outer loop
vertex -0.950000 -1.000000 -0.950000
vertex 0.971133 -0.971133 -0.971133
vertex -0.971133 -0.971133 -0.971133
endloop
endfacet
facet normal 0.000000 -0.939070 0.343725
outer loop
vertex 0.950000 -1.000000 -0.950000
vertex -0.950000 -1.000000 -0.950000
vertex -1.028867 -1.028867 -1.028867
endloop
endfacet
facet normal 0.000000 -0.939072 0.343720
outer loop
vertex 0.950000 -1.000000 -0.950000
vertex -1.028867 -1.028867 -1.028867
vertex 1.028867 -1.028867 -1.028867
endloop
endfacet
facet normal -0.806895 0.590694 0.000000
outer loop
vertex 0.950000 -1.000000 -0.950000
vertex 0.950000 -1.000000 0.950000
vertex 0.971133 -0.971133 0.971133
endloop
endfacet
facet normal -0.806899 0.590689 0.000000
outer loop
vertex 0.950000 -1.000000 -0.950000
vertex 0.971133 -0.971133 0.971133
vertex 0.971133 -0.971133 -0.971133
endloop
endfacet
facet normal -0.343723 -0.939071 0.000000
outer loop
vertex 0.950000 -1.000000 0.950000
vertex 0.950000 -1.000000 -0.950000
vertex 1.028867 -1.028867 -1.028867
endloop
endfacet
facet normal -0.343725 -0.939070 0.000000
outer loop
vertex 0.950000 -1.000000 0.950000
vertex 1.028867 -1.028867 -1.028867
vertex 1.028867 -1.028867 1.028867
endloop
endfacet
facet normal 0.000000 -0.590692 -0.806897
outer loop
vertex -0.950000 1.000000 0.950000
vertex 0.950000 1.000000 0.950000
vertex 0.971133 0.971133 0.971133
endloop
endfacet
facet normal 0.000000 -0.590691 -0.806898
outer loop
vertex -0.950000 1.000000 0.950000
vertex 0.971133 0.971133 0.971133
vertex -0.971133 0.971133 0.971133
endloop
endfacet
facet normal 0.000000 0.939070 -0.343725
outer loop
vertex 0.950000 1.000000 0.950000
vertex -0.950000 1.000000 0.950000
vertex -1.028867 1.028867 1.028867
endloop
endfacet
facet normal 0.000000 0.939072 -0.343720
outer loop
vertex 0.950000 1.000000 0.950000
vertex -1.028867 1.028867 1.028867
vertex 1.028867 1.028867 1.028867
endloop
endfacet
facet normal -0.806895 -0.590694 0.000000
outer loop
vertex 0.950000 1.000000 0.950000
vertex 0.950000 1.000000 -0.950000
vertex 0.971133 0.971133 -0.971133
endloop
endfacet
facet normal -0.806899 -0.590689 0.000000
outer loop
vertex 0.950000 1.000000 0.950000
vertex 0.971133 0.971133 -0.971133
vertex 0.971133 0.971133 0.971133
endloop
endfacet
facet normal -0.343723 0.939071 0.000000
outer loop
vertex 0.950000 1.000000 -0.950000
vertex 0.950000 1.000000 0.950000
vertex 1.028867 1.028867 1.028867
endloop
endfacet
facet normal -0.343725 0.939070 0.000000
outer loop
vertex 0.950000 1.000000 -0.950000
vertex 1.028867 1.028867 1.028867
vertex 1.028867 1.028867 -1.028867
endloop
endfacet
facet normal 0.000000 -0.590692 0.806897
outer loop
vertex 0.950000 1.000000 -0.950000
vertex -0.950000 1.000000 -0.950000
vertex -0.971133 0.971133 -0.971133
endloop
endfacet
facet normal 0.000000 -0.590691 0.806898
outer loop
vertex 0.950000 1.000000 -0.950000
vertex -0.971133 0.971133 -0.971133
vertex 0.971133 0.971133 -0.971133
endloop
endfacet
facet normal 0.000000 0.939070 0.343725
outer loop
vertex -0.950000 1.000000 -0.950000
vertex 0.950000 1.000000 -0.950000
vertex 1.028867 1.028867 -1.028867
endloop
endfacet
facet normal 0.000000 0.939072 0.343720
outer loop
vertex -0.950000 1.000000 -0.950000
vertex 1.028867 1.028867 -1.028867
vertex -1.028867 1.028867 -1.028867
endloop
endfacet
facet normal 0.806895 -0.590694 0.000000
outer loop
vertex -0.950000 1.000000 -0.950000
vertex -0.950000 1.000000 0.950000
vertex -0.971133 0.971133 0.971133
endloop
endfacet
facet normal 0.806899 -0.590689 0.000000
outer loop
vertex -0.950000 1.000000 -0.950000
vertex -0.971133 0.971133 0.971133
vertex -0.971133 0.971133 -0.971133
endloop
endfacet
facet normal 0.343723 0.939071 0.000000
outer loop
vertex -0.950000 1.000000 0.950000
vertex -0.950000 1.000000 -0.950000
vertex -1.028867 1.028867 -1.028867
endloop
endfacet
facet normal 0.343725 0.939070 0.000000
outer loop
vertex -0.950000 1.000000 0.950000
vertex -1.028867 1.028867 -1.028867
vertex -1.028867 1.028867 1.028867
endloop
endfacet
endsolid Exported from Blender-2.80 (sub 75)
