solid Exported from Blender-2.80 (sub 75)
facet normal -0.102381 -0.943523 -0.315090
outer loop
vertex 0.000000 -0.200000 0.000000
vertex -0.085065 -0.170131 -0.061802
vertex 0.032491 -0.170131 -0.099999
endloop
endfacet
facet normal -0.700224 -0.661699 -0.268032
outer loop
vertex -0.144721 -0.089444 -0.105145
vertex -0.085065 -0.170131 -0.061802
vertex -0.170130 -0.105147 0.000000
endloop
endfacet
facet normal 0.268034 -0.943523 -0.194736
outer loop
vertex 0.000000 -0.200000 0.000000
vertex 0.032491 -0.170131 -0.099999
vertex 0.105146 -0.170130 0.000000
endloop
endfacet
facet normal 0.268034 -0.943523 0.194736
outer loop
vertex 0.000000 -0.200000 0.000000
vertex 0.105146 -0.170130 0.000000
vertex 0.032491 -0.170131 0.099999
endloop
endfacet
facet normal -0.102381 -0.943523 0.315090
outer loop
vertex 0.000000 -0.200000 0.000000
vertex 0.032491 -0.170131 0.099999
vertex -0.085065 -0.170131 0.061802
endloop
endfacet
facet normal -0.904989 -0.330385 -0.268032
outer loop
vertex -0.144721 -0.089444 -0.105145
vertex -0.170130 -0.105147 0.000000
vertex -0.190212 0.000000 -0.061803
endloop
endfacet
facet normal -0.024747 -0.330386 -0.943521
outer loop
vertex 0.055278 -0.089444 -0.170130
vertex -0.052574 -0.105148 -0.161802
vertex 0.000000 0.000000 -0.200000
endloop
endfacet
facet normal 0.889697 -0.330385 -0.315095
outer loop
vertex 0.178885 -0.089443 0.000000
vertex 0.137638 -0.105147 -0.099999
vertex 0.190212 0.000000 -0.061803
endloop
endfacet
facet normal 0.574602 -0.330388 0.748784
outer loop
vertex 0.055278 -0.089444 0.170130
vertex 0.137638 -0.105147 0.099999
vertex 0.117557 0.000000 0.161803
endloop
endfacet
facet normal -0.534576 -0.330387 0.777865
outer loop
vertex -0.144721 -0.089444 0.105145
vertex -0.052574 -0.105148 0.161802
vertex -0.117557 0.000000 0.161803
endloop
endfacet
facet normal -0.802609 -0.125627 -0.583126
outer loop
vertex -0.144721 -0.089444 -0.105145
vertex -0.190212 0.000000 -0.061803
vertex -0.117557 0.000000 -0.161803
endloop
endfacet
facet normal 0.306569 -0.125629 -0.943522
outer loop
vertex 0.055278 -0.089444 -0.170130
vertex 0.000000 0.000000 -0.200000
vertex 0.117557 0.000000 -0.161803
endloop
endfacet
facet normal 0.992077 -0.125628 0.000000
outer loop
vertex 0.178885 -0.089443 0.000000
vertex 0.190212 0.000000 -0.061803
vertex 0.190212 0.000000 0.061803
endloop
endfacet
facet normal 0.306569 -0.125629 0.943522
outer loop
vertex 0.055278 -0.089444 0.170130
vertex 0.117557 0.000000 0.161803
vertex 0.000000 0.000000 0.200000
endloop
endfacet
facet normal -0.802609 -0.125627 0.583126
outer loop
vertex -0.144721 -0.089444 0.105145
vertex -0.117557 0.000000 0.161803
vertex -0.190212 0.000000 0.061803
endloop
endfacet
facet normal -0.408946 0.661699 -0.628425
outer loop
vertex -0.055278 0.089444 -0.170130
vertex -0.137638 0.105147 -0.099999
vertex -0.032491 0.170131 -0.099999
endloop
endfacet
facet normal 0.471300 0.661699 -0.583122
outer loop
vertex 0.144721 0.089444 -0.105145
vertex 0.052574 0.105148 -0.161802
vertex 0.085065 0.170131 -0.061802
endloop
endfacet
facet normal 0.700224 0.661699 0.268032
outer loop
vertex 0.144721 0.089444 0.105145
vertex 0.170130 0.105147 0.000000
vertex 0.085065 0.170131 0.061802
endloop
endfacet
facet normal -0.038530 0.661699 0.748779
outer loop
vertex -0.055278 0.089444 0.170130
vertex 0.052574 0.105148 0.161802
vertex -0.032491 0.170131 0.099999
endloop
endfacet
facet normal -0.724042 0.661695 0.194736
outer loop
vertex -0.178885 0.089443 0.000000
vertex -0.137638 0.105147 0.099999
vertex -0.105146 0.170130 0.000000
endloop
endfacet
facet normal -0.268034 0.943523 0.194737
outer loop
vertex -0.105146 0.170130 0.000000
vertex -0.032491 0.170131 0.099999
vertex 0.000000 0.200000 0.000000
endloop
endfacet
facet normal -0.491119 0.794657 0.356821
outer loop
vertex -0.105146 0.170130 0.000000
vertex -0.137638 0.105147 0.099999
vertex -0.032491 0.170131 0.099999
endloop
endfacet
facet normal -0.408946 0.661698 0.628425
outer loop
vertex -0.137638 0.105147 0.099999
vertex -0.055278 0.089444 0.170130
vertex -0.032491 0.170131 0.099999
endloop
endfacet
facet normal 0.102381 0.943523 0.315090
outer loop
vertex -0.032491 0.170131 0.099999
vertex 0.085065 0.170131 0.061802
vertex 0.000000 0.200000 0.000000
endloop
endfacet
facet normal 0.187594 0.794658 0.577345
outer loop
vertex -0.032491 0.170131 0.099999
vertex 0.052574 0.105148 0.161802
vertex 0.085065 0.170131 0.061802
endloop
endfacet
facet normal 0.471300 0.661699 0.583122
outer loop
vertex 0.052574 0.105148 0.161802
vertex 0.144721 0.089444 0.105145
vertex 0.085065 0.170131 0.061802
endloop
endfacet
facet normal 0.331305 0.943524 0.000000
outer loop
vertex 0.085065 0.170131 0.061802
vertex 0.085065 0.170131 -0.061802
vertex 0.000000 0.200000 0.000000
endloop
endfacet
facet normal 0.607061 0.794656 0.000000
outer loop
vertex 0.085065 0.170131 0.061802
vertex 0.170130 0.105147 0.000000
vertex 0.085065 0.170131 -0.061802
endloop
endfacet
facet normal 0.700224 0.661699 -0.268032
outer loop
vertex 0.170130 0.105147 0.000000
vertex 0.144721 0.089444 -0.105145
vertex 0.085065 0.170131 -0.061802
endloop
endfacet
facet normal 0.102381 0.943523 -0.315090
outer loop
vertex 0.085065 0.170131 -0.061802
vertex -0.032491 0.170131 -0.099999
vertex 0.000000 0.200000 0.000000
endloop
endfacet
facet normal 0.187594 0.794658 -0.577345
outer loop
vertex 0.085065 0.170131 -0.061802
vertex 0.052574 0.105148 -0.161802
vertex -0.032491 0.170131 -0.099999
endloop
endfacet
facet normal -0.038530 0.661699 -0.748779
outer loop
vertex 0.052574 0.105148 -0.161802
vertex -0.055278 0.089444 -0.170130
vertex -0.032491 0.170131 -0.099999
endloop
endfacet
facet normal -0.268034 0.943523 -0.194737
outer loop
vertex -0.032491 0.170131 -0.099999
vertex -0.105146 0.170130 0.000000
vertex 0.000000 0.200000 0.000000
endloop
endfacet
facet normal -0.491119 0.794657 -0.356821
outer loop
vertex -0.032491 0.170131 -0.099999
vertex -0.137638 0.105147 -0.099999
vertex -0.105146 0.170130 0.000000
endloop
endfacet
facet normal -0.724042 0.661695 -0.194736
outer loop
vertex -0.137638 0.105147 -0.099999
vertex -0.178885 0.089443 0.000000
vertex -0.105146 0.170130 0.000000
endloop
endfacet
facet normal -0.889697 0.330385 0.315095
outer loop
vertex -0.190212 0.000000 0.061803
vertex -0.137638 0.105147 0.099999
vertex -0.178885 0.089443 0.000000
endloop
endfacet
facet normal -0.794656 0.187595 0.577348
outer loop
vertex -0.190212 0.000000 0.061803
vertex -0.117557 0.000000 0.161803
vertex -0.137638 0.105147 0.099999
endloop
endfacet
facet normal -0.574602 0.330388 0.748784
outer loop
vertex -0.117557 0.000000 0.161803
vertex -0.055278 0.089444 0.170130
vertex -0.137638 0.105147 0.099999
endloop
endfacet
facet normal 0.024747 0.330386 0.943521
outer loop
vertex 0.000000 0.000000 0.200000
vertex 0.052574 0.105148 0.161802
vertex -0.055278 0.089444 0.170130
endloop
endfacet
facet normal 0.303531 0.187597 0.934171
outer loop
vertex 0.000000 0.000000 0.200000
vertex 0.117557 0.000000 0.161803
vertex 0.052574 0.105148 0.161802
endloop
endfacet
facet normal 0.534576 0.330386 0.777865
outer loop
vertex 0.117557 0.000000 0.161803
vertex 0.144721 0.089444 0.105145
vertex 0.052574 0.105148 0.161802
endloop
endfacet
facet normal 0.904989 0.330385 0.268032
outer loop
vertex 0.190212 0.000000 0.061803
vertex 0.170130 0.105147 0.000000
vertex 0.144721 0.089444 0.105145
endloop
endfacet
facet normal 0.982246 0.187598 0.000000
outer loop
vertex 0.190212 0.000000 0.061803
vertex 0.190212 0.000000 -0.061803
vertex 0.170130 0.105147 0.000000
endloop
endfacet
facet normal 0.904989 0.330385 -0.268032
outer loop
vertex 0.190212 0.000000 -0.061803
vertex 0.144721 0.089444 -0.105145
vertex 0.170130 0.105147 0.000000
endloop
endfacet
facet normal 0.534576 0.330386 -0.777865
outer loop
vertex 0.117557 0.000000 -0.161803
vertex 0.052574 0.105148 -0.161802
vertex 0.144721 0.089444 -0.105145
endloop
endfacet
facet normal 0.303531 0.187597 -0.934171
outer loop
vertex 0.117557 0.000000 -0.161803
vertex 0.000000 0.000000 -0.200000
vertex 0.052574 0.105148 -0.161802
endloop
endfacet
facet normal 0.024747 0.330386 -0.943521
outer loop
vertex 0.000000 0.000000 -0.200000
vertex -0.055278 0.089444 -0.170130
vertex 0.052574 0.105148 -0.161802
endloop
endfacet
facet normal -0.574602 0.330388 -0.748784
outer loop
vertex -0.117557 0.000000 -0.161803
vertex -0.137638 0.105147 -0.099999
vertex -0.055278 0.089444 -0.170130
endloop
endfacet
facet normal -0.794656 0.187595 -0.577348
outer loop
vertex -0.117557 0.000000 -0.161803
vertex -0.190212 0.000000 -0.061803
vertex -0.137638 0.105147 -0.099999
endloop
endfacet
facet normal -0.889697 0.330385 -0.315095
outer loop
vertex -0.190212 0.000000 -0.061803
vertex -0.178885 0.089443 0.000000
vertex -0.137638 0.105147 -0.099999
endloop
endfacet
facet normal -0.306569 0.125629 0.943522
outer loop
vertex -0.117557 0.000000 0.161803
vertex 0.000000 0.000000 0.200000
vertex -0.055278 0.089444 0.170130
endloop
endfacet
facet normal -0.303531 -0.187597 0.934171
outer loop
vertex -0.117557 0.000000 0.161803
vertex -0.052574 -0.105148 0.161802
vertex 0.000000 0.000000 0.200000
endloop
endfacet
facet normal -0.024747 -0.330386 0.943521
outer loop
vertex -0.052574 -0.105148 0.161802
vertex 0.055278 -0.089444 0.170130
vertex 0.000000 0.000000 0.200000
endloop
endfacet
facet normal 0.802609 0.125627 0.583126
outer loop
vertex 0.117557 0.000000 0.161803
vertex 0.190212 0.000000 0.061803
vertex 0.144721 0.089444 0.105145
endloop
endfacet
facet normal 0.794656 -0.187595 0.577348
outer loop
vertex 0.117557 0.000000 0.161803
vertex 0.137638 -0.105147 0.099999
vertex 0.190212 0.000000 0.061803
endloop
endfacet
facet normal 0.889697 -0.330385 0.315095
outer loop
vertex 0.137638 -0.105147 0.099999
vertex 0.178885 -0.089443 0.000000
vertex 0.190212 0.000000 0.061803
endloop
endfacet
facet normal 0.802609 0.125627 -0.583126
outer loop
vertex 0.190212 0.000000 -0.061803
vertex 0.117557 0.000000 -0.161803
vertex 0.144721 0.089444 -0.105145
endloop
endfacet
facet normal 0.794656 -0.187595 -0.577348
outer loop
vertex 0.190212 0.000000 -0.061803
vertex 0.137638 -0.105147 -0.099999
vertex 0.117557 0.000000 -0.161803
endloop
endfacet
facet normal 0.574602 -0.330388 -0.748784
outer loop
vertex 0.137638 -0.105147 -0.099999
vertex 0.055278 -0.089444 -0.170130
vertex 0.117557 0.000000 -0.161803
endloop
endfacet
facet normal -0.306569 0.125629 -0.943522
outer loop
vertex 0.000000 0.000000 -0.200000
vertex -0.117557 0.000000 -0.161803
vertex -0.055278 0.089444 -0.170130
endloop
endfacet
facet normal -0.303531 -0.187597 -0.934171
outer loop
vertex 0.000000 0.000000 -0.200000
vertex -0.052574 -0.105148 -0.161802
vertex -0.117557 0.000000 -0.161803
endloop
endfacet
facet normal -0.534576 -0.330387 -0.777865
outer loop
vertex -0.052574 -0.105148 -0.161802
vertex -0.144721 -0.089444 -0.105145
vertex -0.117557 0.000000 -0.161803
endloop
endfacet
facet normal -0.992077 0.125628 0.000000
outer loop
vertex -0.190212 0.000000 -0.061803
vertex -0.190212 0.000000 0.061803
vertex -0.178885 0.089443 0.000000
endloop
endfacet
facet normal -0.982246 -0.187598 0.000000
outer loop
vertex -0.190212 0.000000 -0.061803
vertex -0.170130 -0.105147 0.000000
vertex -0.190212 0.000000 0.061803
endloop
endfacet
facet normal -0.904989 -0.330385 0.268032
outer loop
vertex -0.170130 -0.105147 0.000000
vertex -0.144721 -0.089444 0.105145
vertex -0.190212 0.000000 0.061803
endloop
endfacet
facet normal -0.471300 -0.661699 0.583122
outer loop
vertex -0.085065 -0.170131 0.061802
vertex -0.052574 -0.105148 0.161802
vertex -0.144721 -0.089444 0.105145
endloop
endfacet
facet normal -0.187594 -0.794658 0.577345
outer loop
vertex -0.085065 -0.170131 0.061802
vertex 0.032491 -0.170131 0.099999
vertex -0.052574 -0.105148 0.161802
endloop
endfacet
facet normal 0.038530 -0.661699 0.748779
outer loop
vertex 0.032491 -0.170131 0.099999
vertex 0.055278 -0.089444 0.170130
vertex -0.052574 -0.105148 0.161802
endloop
endfacet
facet normal 0.408946 -0.661698 0.628425
outer loop
vertex 0.032491 -0.170131 0.099999
vertex 0.137638 -0.105147 0.099999
vertex 0.055278 -0.089444 0.170130
endloop
endfacet
facet normal 0.491119 -0.794657 0.356821
outer loop
vertex 0.032491 -0.170131 0.099999
vertex 0.105146 -0.170130 0.000000
vertex 0.137638 -0.105147 0.099999
endloop
endfacet
facet normal 0.724042 -0.661695 0.194736
outer loop
vertex 0.105146 -0.170130 0.000000
vertex 0.178885 -0.089443 0.000000
vertex 0.137638 -0.105147 0.099999
endloop
endfacet
facet normal 0.724042 -0.661695 -0.194736
outer loop
vertex 0.105146 -0.170130 0.000000
vertex 0.137638 -0.105147 -0.099999
vertex 0.178885 -0.089443 0.000000
endloop
endfacet
facet normal 0.491119 -0.794657 -0.356821
outer loop
vertex 0.105146 -0.170130 0.000000
vertex 0.032491 -0.170131 -0.099999
vertex 0.137638 -0.105147 -0.099999
endloop
endfacet
facet normal 0.408946 -0.661698 -0.628425
outer loop
vertex 0.032491 -0.170131 -0.099999
vertex 0.055278 -0.089444 -0.170130
vertex 0.137638 -0.105147 -0.099999
endloop
endfacet
facet normal -0.700224 -0.661699 0.268032
outer loop
vertex -0.170130 -0.105147 0.000000
vertex -0.085065 -0.170131 0.061802
vertex -0.144721 -0.089444 0.105145
endloop
endfacet
facet normal -0.607061 -0.794656 0.000000
outer loop
vertex -0.170130 -0.105147 0.000000
vertex -0.085065 -0.170131 -0.061802
vertex -0.085065 -0.170131 0.061802
endloop
endfacet
facet normal -0.331305 -0.943524 0.000000
outer loop
vertex -0.085065 -0.170131 -0.061802
vertex 0.000000 -0.200000 0.000000
vertex -0.085065 -0.170131 0.061802
endloop
endfacet
facet normal 0.038530 -0.661699 -0.748779
outer loop
vertex 0.032491 -0.170131 -0.099999
vertex -0.052574 -0.105148 -0.161802
vertex 0.055278 -0.089444 -0.170130
endloop
endfacet
facet normal -0.187594 -0.794658 -0.577345
outer loop
vertex 0.032491 -0.170131 -0.099999
vertex -0.085065 -0.170131 -0.061802
vertex -0.052574 -0.105148 -0.161802
endloop
endfacet
facet normal -0.471300 -0.661699 -0.583122
outer loop
vertex -0.085065 -0.170131 -0.061802
vertex -0.144721 -0.089444 -0.105145
vertex -0.052574 -0.105148 -0.161802
endloop
endfacet
endsolid Exported from Blender-2.80 (sub 75)
